<svg width="41" height="41" viewBox="0 0 41 41" fill="none" xmlns="http://www.w3.org/2000/svg">
<g clip-path="url(#clip0_209_143)">
<path d="M1.59046 2.90587C1.40336 2.90345 1.21799 2.94202 1.04738 3.01887C0.876776 3.09573 0.72506 3.209 0.602894 3.35074C0.480728 3.49248 0.391074 3.65924 0.340227 3.83932C0.28938 4.0194 0.278574 4.20843 0.308567 4.39313L5.75045 37.4287C5.81822 37.833 6.02632 38.2004 6.33812 38.4665C6.64992 38.7326 7.04551 38.8804 7.45541 38.8838H33.5622C33.8694 38.8876 34.1679 38.7811 34.4031 38.5834C34.6383 38.3858 34.7948 38.1102 34.8439 37.8069L40.2859 4.39953C40.316 4.21484 40.3052 4.02584 40.2542 3.84579C40.2033 3.66574 40.1136 3.499 39.9914 3.3573C39.8693 3.21559 39.7176 3.10236 39.547 3.02553C39.3763 2.9487 39.191 2.91015 39.0039 2.91259L1.59046 2.90587ZM24.5052 26.782H16.1725L13.9163 14.9946H26.5243L24.5052 26.782Z" fill="#2684FF"/>
<path d="M38.5221 14.978H26.5009L24.4833 26.756H16.1574L6.32642 38.4252C6.63802 38.6946 7.03528 38.8444 7.44719 38.8478H33.5396C33.8466 38.8517 34.1448 38.7453 34.3799 38.5478C34.615 38.3503 34.7714 38.075 34.8205 37.7719L38.5221 14.978Z" fill="url(#paint0_linear_209_143)"/>
</g>
<defs>
<linearGradient id="paint0_linear_209_143" x1="41.3013" y1="18.2763" x2="27.4151" y2="37.9935" gradientUnits="userSpaceOnUse">
<stop offset="0.18" stop-color="#0052CC"/>
<stop offset="1" stop-color="#2684FF"/>
</linearGradient>
<clipPath id="clip0_209_143">
<rect width="40.0105" height="40.0105" fill="white" transform="translate(0.291992 0.905273)"/>
</clipPath>
</defs>
</svg>
