<svg width="41" height="41" viewBox="0 0 41 41" fill="none" xmlns="http://www.w3.org/2000/svg">
<g clip-path="url(#clip0_209_133)">
<path d="M14.0378 40.9161C17.7188 40.9161 20.7062 37.9285 20.7062 34.2475V27.5791H14.0378C10.3568 27.5791 7.36938 30.5666 7.36938 34.2475C7.36938 37.9285 10.3568 40.9161 14.0378 40.9161Z" fill="#0ACF83"/>
<path d="M7.36938 20.9106C7.36938 17.2297 10.3568 14.2422 14.0378 14.2422H20.7062V27.579H14.0378C10.3568 27.579 7.36938 24.5916 7.36938 20.9106Z" fill="#A259FF"/>
<path d="M7.36938 7.57367C7.36938 3.89272 10.3568 0.905273 14.0378 0.905273H20.7062V14.2421H14.0378C10.3568 14.2421 7.36938 11.2546 7.36938 7.57367Z" fill="#F24E1E"/>
<path d="M20.7063 0.905273H27.3747C31.0557 0.905273 34.0432 3.89272 34.0432 7.57367C34.0432 11.2546 31.0557 14.2421 27.3747 14.2421H20.7063V0.905273Z" fill="#FF7262"/>
<path d="M34.0432 20.9106C34.0432 24.5916 31.0557 27.579 27.3747 27.579C23.6938 27.579 20.7063 24.5916 20.7063 20.9106C20.7063 17.2297 23.6938 14.2422 27.3747 14.2422C31.0557 14.2422 34.0432 17.2297 34.0432 20.9106Z" fill="#1ABCFE"/>
</g>
<defs>
<clipPath id="clip0_209_133">
<rect width="40.0105" height="40.0105" fill="white" transform="translate(0.700928 0.905273)"/>
</clipPath>
</defs>
</svg>
