<svg width="41" height="41" viewBox="0 0 41 41" fill="none" xmlns="http://www.w3.org/2000/svg">
<g clip-path="url(#clip0_209_55)">
<path d="M39.9569 18.8261L22.4879 1.35805C21.4825 0.352004 19.8508 0.352004 18.8441 1.35805L15.2166 4.98555L19.8183 9.58724C20.8876 9.2259 22.1139 9.46829 22.9663 10.3207C23.8228 11.1786 24.0635 12.4153 23.6934 13.4881L28.1281 17.923C29.201 17.5534 30.439 17.7925 31.296 18.6509C32.4936 19.848 32.4936 21.7884 31.296 22.9864C30.098 24.1845 28.1576 24.1845 26.9591 22.9864C26.0582 22.0846 25.8356 20.7616 26.2917 19.6518L22.1559 15.516L22.1555 26.3996C22.4553 26.5478 22.7291 26.7437 22.9663 26.9794C24.164 28.1766 24.164 30.1171 22.9663 31.3161C21.7683 32.5136 19.827 32.5136 18.6308 31.3161C17.4331 30.1171 17.4331 28.1768 18.6308 26.9796C18.9178 26.6924 19.2589 26.4651 19.6343 26.3105V15.3255C19.2584 15.172 18.9171 14.9444 18.6308 14.6564C17.7234 13.7502 17.5052 12.4188 17.9701 11.3046L13.4339 6.7679L1.45581 18.7453C0.449299 19.7523 0.449299 21.3841 1.45581 22.3903L18.9251 39.8586C19.9308 40.8647 21.5622 40.8647 22.5691 39.8586L39.9567 22.4714C40.9631 21.4649 40.9631 19.8321 39.9569 18.8261Z" fill="#DE4C36"/>
</g>
<defs>
<clipPath id="clip0_209_55">
<rect width="40.0105" height="40.0105" fill="white" transform="translate(0.700928 0.603516)"/>
</clipPath>
</defs>
</svg>
