<svg width="27" height="27" viewBox="0 0 27 27" fill="none" xmlns="http://www.w3.org/2000/svg">
<path d="M13.5001 0C6.04515 0 0 6.04409 0 13.5001C0 19.4648 3.86817 24.5252 9.2322 26.3103C9.90685 26.4352 10.1546 26.0174 10.1546 25.6608C10.1546 25.339 10.142 24.2754 10.1363 23.1474C6.38046 23.964 5.58796 21.5546 5.58796 21.5546C4.97387 19.9941 4.08903 19.5793 4.08903 19.5793C2.86423 18.7414 4.18137 18.7585 4.18137 18.7585C5.53704 18.8538 6.25086 20.1498 6.25086 20.1498C7.4549 22.2137 9.409 21.6169 10.1794 21.2721C10.3005 20.3994 10.6504 19.804 11.0365 19.4668C8.03799 19.1254 4.88577 17.9678 4.88577 12.795C4.88577 11.3212 5.41316 10.1168 6.27681 9.17142C6.13663 8.83133 5.67458 7.45829 6.40757 5.59875C6.40757 5.59875 7.54119 5.2359 10.121 6.98258C11.1978 6.68337 12.3528 6.53346 13.5001 6.52836C14.6474 6.53346 15.8031 6.68337 16.882 6.98258C19.4588 5.2359 20.5909 5.59875 20.5909 5.59875C21.3256 7.45829 20.8634 8.83133 20.7232 9.17142C21.5888 10.1168 22.1125 11.3211 22.1125 12.795C22.1125 17.9801 18.9544 19.1219 15.9483 19.456C16.4325 19.875 16.8639 20.6966 16.8639 21.9561C16.8639 23.7623 16.8483 25.2161 16.8483 25.6608C16.8483 26.0201 17.0913 26.4411 17.7757 26.3085C23.1367 24.5214 27 19.4628 27 13.5001C27 6.04409 20.9557 0 13.5001 0Z" fill="#E6E6E6"/>
<path d="M5.05616 19.2314C5.02651 19.2984 4.92083 19.3185 4.82482 19.2726C4.72687 19.2285 4.67181 19.137 4.70359 19.0697C4.7327 19.0006 4.83838 18.9814 4.93609 19.0278C5.03423 19.0717 5.09015 19.164 5.05616 19.2314ZM5.72022 19.8239C5.65586 19.8836 5.52995 19.8558 5.44453 19.7615C5.35621 19.6674 5.33971 19.5416 5.40503 19.4809C5.47142 19.4213 5.59349 19.4492 5.68202 19.5434C5.77031 19.6386 5.78756 19.7635 5.72022 19.8239ZM6.17582 20.582C6.09304 20.6394 5.95772 20.5855 5.87418 20.4655C5.79148 20.3455 5.79148 20.2015 5.87599 20.1438C5.95982 20.0861 6.09304 20.138 6.17774 20.2571C6.2603 20.3792 6.26041 20.5231 6.17582 20.582ZM6.94621 21.46C6.87218 21.5415 6.71463 21.5197 6.59924 21.4083C6.4813 21.2995 6.44836 21.145 6.52258 21.0634C6.59743 20.9816 6.75594 21.0046 6.87218 21.115C6.98939 21.2237 7.02511 21.3793 6.94621 21.46ZM7.94189 21.7565C7.90938 21.8621 7.75756 21.9102 7.60466 21.8653C7.45198 21.819 7.35202 21.6952 7.38286 21.5883C7.41461 21.4819 7.56708 21.4318 7.72114 21.4799C7.87358 21.526 7.97364 21.6489 7.94189 21.7565ZM9.07522 21.8821C9.07902 21.9935 8.94932 22.0859 8.7888 22.0879C8.62734 22.0914 8.4968 22.0013 8.49509 21.8918C8.49509 21.7793 8.62183 21.6878 8.78318 21.6852C8.9437 21.682 9.07522 21.7715 9.07522 21.8821ZM10.1884 21.8395C10.2077 21.9481 10.0961 22.0597 9.93676 22.0893C9.78005 22.1179 9.63498 22.0509 9.61497 21.9432C9.59551 21.8318 9.7092 21.7204 9.86559 21.6915C10.0253 21.6637 10.1681 21.7291 10.1884 21.8395Z" fill="#E6E6E6"/>
</svg>
