<svg width="41" height="41" viewBox="0 0 41 41" fill="none" xmlns="http://www.w3.org/2000/svg">
<g clip-path="url(#clip0_209_126)">
<path d="M20.6533 1.30566C9.60608 1.30566 0.647949 10.2622 0.647949 21.311C0.647949 30.15 6.38007 37.6488 14.3289 40.2941C15.3286 40.4793 15.6958 39.8601 15.6958 39.3317C15.6958 38.8547 15.6771 37.2787 15.6686 35.6071C10.103 36.8173 8.92858 33.2467 8.92858 33.2467C8.01858 30.9344 6.70736 30.3196 6.70736 30.3196C4.89236 29.0779 6.84419 29.1034 6.84419 29.1034C8.85312 29.2446 9.91092 31.165 9.91092 31.165C11.6951 34.2234 14.5909 33.3391 15.7325 32.8281C15.912 31.535 16.4305 30.6526 17.0026 30.153C12.5592 29.647 7.88803 27.9316 7.88803 20.2662C7.88803 18.0822 8.66955 16.2974 9.94937 14.8965C9.74163 14.3925 9.05693 12.3579 10.1431 9.60229C10.1431 9.60229 11.823 9.06458 15.646 11.6529C17.2417 11.2095 18.9531 10.9874 20.6533 10.9798C22.3534 10.9874 24.0661 11.2095 25.6649 11.6529C29.4834 9.06458 31.1609 9.60229 31.1609 9.60229C32.2498 12.3579 31.5648 14.3925 31.357 14.8965C32.6397 16.2974 33.4158 18.082 33.4158 20.2662C33.4158 27.9498 28.7359 29.6418 24.2812 30.137C24.9987 30.7578 25.6381 31.9754 25.6381 33.8417C25.6381 36.5183 25.6149 38.6727 25.6149 39.3317C25.6149 39.8641 25.975 40.4879 26.9892 40.2915C34.9335 37.6432 40.6585 30.147 40.6585 21.311C40.6585 10.2622 31.7016 1.30566 20.6533 1.30566Z" fill="#161614"/>
<path d="M8.14055 29.8041C8.09662 29.9034 7.94002 29.9332 7.79774 29.8651C7.65258 29.7998 7.571 29.6643 7.61809 29.5645C7.66122 29.4622 7.81782 29.4337 7.96262 29.5024C8.10806 29.5675 8.19092 29.7043 8.14055 29.8041ZM9.12461 30.6821C9.02922 30.7706 8.84265 30.7295 8.71606 30.5897C8.58519 30.4502 8.56074 30.2638 8.65752 30.1739C8.75591 30.0855 8.9368 30.1268 9.06799 30.2665C9.19883 30.4075 9.22439 30.5927 9.12461 30.6821ZM9.79974 31.8055C9.67707 31.8907 9.47654 31.8108 9.35275 31.6329C9.23019 31.4551 9.23019 31.2417 9.35543 31.1562C9.47966 31.0707 9.67707 31.1476 9.80258 31.3241C9.92494 31.505 9.9251 31.7183 9.79974 31.8055ZM10.9414 33.1066C10.8317 33.2275 10.5982 33.1951 10.4272 33.0301C10.2524 32.8688 10.2036 32.6399 10.3136 32.5189C10.4245 32.3978 10.6594 32.4318 10.8317 32.5954C11.0053 32.7564 11.0583 32.9871 10.9414 33.1066ZM12.4168 33.5459C12.3687 33.7025 12.1437 33.7738 11.9171 33.7073C11.6908 33.6387 11.5427 33.4551 11.5884 33.2968C11.6355 33.1391 11.8614 33.0649 12.0897 33.1361C12.3156 33.2044 12.4639 33.3865 12.4168 33.5459ZM14.0963 33.7322C14.1019 33.8973 13.9097 34.0341 13.6718 34.0371C13.4326 34.0422 13.2391 33.9087 13.2366 33.7465C13.2366 33.5798 13.4244 33.4443 13.6635 33.4403C13.9014 33.4357 14.0963 33.5682 14.0963 33.7322ZM15.7459 33.669C15.7744 33.8299 15.6091 33.9953 15.373 34.0392C15.1407 34.0816 14.9258 33.9823 14.8961 33.8227C14.8673 33.6576 15.0358 33.4924 15.2675 33.4496C15.5041 33.4085 15.7158 33.5053 15.7459 33.669Z" fill="#161614"/>
</g>
<defs>
<clipPath id="clip0_209_126">
<rect width="40.0105" height="40.0105" fill="white" transform="translate(0.647949 0.905273)"/>
</clipPath>
</defs>
</svg>
