<svg width="41" height="41" viewBox="0 0 41 41" fill="none" xmlns="http://www.w3.org/2000/svg">
<g clip-path="url(#clip0_209_118)">
<path d="M40.0105 0.302002H0V40.3123H40.0105V0.302002Z" fill="#F7DF1E"/>
<path d="M26.877 31.5603C27.6829 32.8762 28.7314 33.8435 30.5859 33.8435C32.1437 33.8435 33.1389 33.0648 33.1389 31.989C33.1389 30.6998 32.1165 30.2432 30.4017 29.4931L29.4618 29.0898C26.7487 27.934 24.9463 26.486 24.9463 23.4249C24.9463 20.6051 27.0948 18.4585 30.4525 18.4585C32.843 18.4585 34.5615 19.2904 35.7999 21.4688L32.8722 23.3487C32.2276 22.1928 31.5321 21.7374 30.4525 21.7374C29.3513 21.7374 28.6533 22.4361 28.6533 23.3487C28.6533 24.4766 29.3519 24.9332 30.965 25.6318L31.905 26.0344C35.0994 27.4043 36.9031 28.8009 36.9031 31.9408C36.9031 35.3258 34.244 37.1802 30.6729 37.1802C27.1812 37.1802 24.9253 35.5163 23.8216 33.3354L26.877 31.5603ZM13.5954 31.8861C14.186 32.934 14.7233 33.82 16.0151 33.82C17.2503 33.82 18.0296 33.3367 18.0296 31.4575V18.6732H21.7893V31.5083C21.7893 35.4013 19.5068 37.1732 16.1751 37.1732C13.1648 37.1732 11.4215 35.6154 10.5349 33.739L13.5954 31.8861Z" fill="black"/>
</g>
<defs>
<clipPath id="clip0_209_118">
<rect width="40.0105" height="40.0105" fill="white" transform="translate(0 0.301758)"/>
</clipPath>
</defs>
</svg>
