<svg width="41" height="41" viewBox="0 0 41 41" fill="none" xmlns="http://www.w3.org/2000/svg">
<g clip-path="url(#clip0_209_69)">
<path d="M19.9713 30.3862C28.8232 42.453 37.4859 27.0181 37.4731 17.736C37.4583 6.76191 26.335 0.628418 19.9642 0.628418C9.73835 0.628262 0 9.0794 0 20.6424C0 33.4948 11.1631 40.6137 19.9642 40.6137C17.9725 40.3271 11.3353 38.905 11.2462 23.6177C11.1861 13.2785 14.619 9.14754 19.9498 10.9647C20.0692 11.0089 25.8297 13.2814 25.8297 20.7048C25.8297 28.0967 19.9713 30.3862 19.9713 30.3862Z" fill="url(#paint0_linear_209_69)"/>
<path d="M19.961 10.9563C14.112 8.94031 6.94678 13.7611 6.94678 23.4168C6.94678 39.1829 18.63 40.6138 20.0463 40.6138C30.2721 40.6138 40.0104 32.1626 40.0104 20.5998C40.0104 7.74735 28.8474 0.628304 20.0463 0.628304C22.484 0.290716 33.1849 3.26649 33.1849 17.8919C33.1849 27.4297 25.1947 32.622 19.9977 30.4036C19.8783 30.3594 14.1176 28.0869 14.1176 20.6635C14.1176 13.2714 19.961 10.9563 19.961 10.9563Z" fill="url(#paint1_linear_209_69)"/>
</g>
<defs>
<linearGradient id="paint0_linear_209_69" x1="5.91739" y1="6.52109" x2="35.8049" y2="32.7705" gradientUnits="userSpaceOnUse">
<stop/>
<stop offset="1" stop-color="white"/>
</linearGradient>
<linearGradient id="paint1_linear_209_69" x1="34.104" y1="34.7072" x2="1.75507" y2="12.6164" gradientUnits="userSpaceOnUse">
<stop/>
<stop offset="1" stop-color="white"/>
</linearGradient>
<clipPath id="clip0_209_69">
<rect width="40.0105" height="40.0105" fill="white" transform="translate(0 0.603516)"/>
</clipPath>
</defs>
</svg>
