<svg width="23" height="18" viewBox="0 0 23 18" fill="none" xmlns="http://www.w3.org/2000/svg">
<path d="M2.3 18C1.6675 18 1.12604 17.7797 0.675625 17.3391C0.225208 16.8984 0 16.3687 0 15.75V2.25C0 1.63125 0.225208 1.10156 0.675625 0.660937C1.12604 0.220312 1.6675 0 2.3 0H20.7C21.3325 0 21.874 0.220312 22.3244 0.660937C22.7748 1.10156 23 1.63125 23 2.25V15.75C23 16.3687 22.7748 16.8984 22.3244 17.3391C21.874 17.7797 21.3325 18 20.7 18H2.3ZM11.5 10.125L20.7 4.5V2.25L11.5 7.875L2.3 2.25V4.5L11.5 10.125Z" fill="#E6E6E6"/>
</svg>
