<svg width="41" height="41" viewBox="0 0 41 41" fill="none" xmlns="http://www.w3.org/2000/svg">
<g clip-path="url(#clip0_209_93)">
<mask id="mask0_209_93" style="mask-type:luminance" maskUnits="userSpaceOnUse" x="0" y="16" width="41" height="9">
<path d="M40.3025 16.3062H0.291992V24.4301H40.3025V16.3062Z" fill="white"/>
</mask>
<g mask="url(#mask0_209_93)">
<path d="M26.8896 16.3096H33.8588V17.5959H31.0942V24.363H29.7118V17.5959H26.8896V16.3096Z" fill="black"/>
<path d="M15.4281 16.3096V17.5959H9.84187V19.6652H14.3343V20.9515H9.84187V23.0767H15.4281V24.363H8.45954V17.5959H8.45898V16.3096H15.4281Z" fill="black"/>
<path d="M18.9081 16.313H17.0991L23.5786 24.3665H25.3929L22.1527 20.3425L25.3877 16.3191L23.5786 16.3219L21.247 19.2177L18.9081 16.313Z" fill="black"/>
<path d="M20.7645 22.0656L19.8586 20.9392L17.094 24.3725H18.9082L20.7645 22.0656Z" fill="black"/>
<path fill-rule="evenodd" clip-rule="evenodd" d="M8.50807 24.363L2.01987 16.3062H0.291992V24.3596H1.67429V18.0276L6.77153 24.363H8.50807Z" fill="black"/>
<path d="M34.1694 24.3135C34.0682 24.3135 33.9821 24.2785 33.91 24.2084C33.838 24.1382 33.8023 24.0534 33.8032 23.9528C33.8023 23.855 33.838 23.771 33.91 23.7009C33.9821 23.6308 34.0682 23.5957 34.1694 23.5957C34.2668 23.5957 34.352 23.6308 34.4241 23.7009C34.4971 23.771 34.5336 23.855 34.5346 23.9528C34.5336 24.0192 34.5167 24.0801 34.483 24.1345C34.4484 24.1899 34.4045 24.2333 34.3491 24.2646C34.2948 24.2969 34.2349 24.3135 34.1694 24.3135Z" fill="black"/>
<path d="M36.5285 20.9211H37.1409V23.2804C37.1399 23.4972 37.0931 23.6827 37.0014 23.8386C36.9087 23.9945 36.7804 24.1136 36.6156 24.1975C36.4518 24.2806 36.2598 24.323 36.0416 24.323C35.8421 24.323 35.6633 24.287 35.5042 24.2169C35.345 24.1468 35.2186 24.0416 35.1259 23.9032C35.0322 23.7648 34.9863 23.5923 34.9863 23.3856H35.5997C35.6006 23.476 35.6212 23.5544 35.6605 23.6199C35.6998 23.6855 35.7541 23.7353 35.8234 23.7703C35.8936 23.8054 35.9742 23.8229 36.065 23.8229C36.1633 23.8229 36.2476 23.8026 36.3159 23.7611C36.3843 23.7205 36.4367 23.6596 36.4733 23.5784C36.5088 23.4981 36.5276 23.3985 36.5285 23.2804V20.9211Z" fill="black"/>
<path d="M39.6619 21.8442C39.6469 21.7011 39.5814 21.5894 39.4671 21.51C39.3519 21.4297 39.203 21.3901 39.0203 21.3901C38.892 21.3901 38.7816 21.4094 38.6897 21.4473C38.598 21.4861 38.5268 21.5377 38.478 21.6032C38.4294 21.6688 38.405 21.7435 38.4031 21.8275C38.4031 21.8977 38.4199 21.9586 38.4527 22.0094C38.4855 22.061 38.5295 22.1044 38.5867 22.1395C38.6428 22.1755 38.7056 22.205 38.774 22.229C38.8433 22.253 38.9126 22.2733 38.9819 22.2899L39.3013 22.3684C39.4297 22.3979 39.5542 22.4376 39.6732 22.4884C39.7921 22.5382 39.8998 22.6019 39.9944 22.6784C40.089 22.7551 40.1639 22.8474 40.2192 22.9554C40.2744 23.0633 40.3026 23.1898 40.3026 23.3356C40.3026 23.5322 40.252 23.7048 40.1498 23.8543C40.0478 24.0029 39.9007 24.1191 39.7078 24.2032C39.5158 24.2862 39.2835 24.3287 39.01 24.3287C38.7459 24.3287 38.5155 24.2881 38.3216 24.2069C38.1269 24.1265 37.975 24.0084 37.8655 23.8534C37.7559 23.6983 37.6969 23.5091 37.6885 23.2867H38.2954C38.3039 23.403 38.3413 23.4999 38.405 23.5783C38.4696 23.6559 38.5539 23.7131 38.657 23.7519C38.761 23.7897 38.877 23.8091 39.0054 23.8091C39.1393 23.8091 39.2573 23.7887 39.3594 23.7491C39.4605 23.7094 39.5401 23.654 39.5973 23.582C39.6554 23.5109 39.6844 23.427 39.6854 23.331C39.6844 23.2433 39.6581 23.1704 39.6075 23.1132C39.5561 23.0559 39.4849 23.0079 39.394 22.9692C39.3023 22.9304 39.1955 22.8953 39.0737 22.8649L38.686 22.7671C38.4059 22.696 38.1839 22.588 38.0218 22.4431C37.859 22.2982 37.7783 22.1063 37.7783 21.8654C37.7783 21.6679 37.8327 21.4943 37.9423 21.3458C38.0509 21.1972 38.1999 21.0818 38.3881 20.9996C38.5774 20.9166 38.7909 20.876 39.0287 20.876C39.2704 20.876 39.482 20.9166 39.6647 20.9996C39.8473 21.0818 39.9907 21.1963 40.0946 21.3421C40.1986 21.4879 40.2529 21.6549 40.2558 21.8442H39.6619Z" fill="black"/>
</g>
</g>
<defs>
<clipPath id="clip0_209_93">
<rect width="40.0105" height="40.0105" fill="white" transform="translate(0.291992 0.301758)"/>
</clipPath>
</defs>
</svg>
