<svg width="41" height="41" viewBox="0 0 41 41" fill="none" xmlns="http://www.w3.org/2000/svg">
<g clip-path="url(#clip0_209_193)">
<path d="M7.08518 0.742188H32.9253C36.843 0.742188 40.0105 3.90968 40.0105 7.82737V32.6672C40.0105 36.5849 36.843 39.7524 32.9253 39.7524H7.08518C3.1675 39.7524 0 36.5849 0 32.6672V7.82737C0 3.90968 3.1675 0.742188 7.08518 0.742188Z" fill="#001E36"/>
<path d="M9.00244 28.0996V10.9451C9.00244 10.8283 9.05245 10.7616 9.16917 10.7616C9.45256 10.7616 9.71931 10.7616 10.1027 10.745C10.5028 10.7283 10.9196 10.7283 11.3697 10.7116C11.8199 10.695 12.3033 10.695 12.8201 10.6783C13.3369 10.6616 13.837 10.6616 14.3372 10.6616C15.7042 10.6616 16.8378 10.8283 17.7714 11.1784C18.605 11.4618 19.3718 11.9286 20.0053 12.5455C20.5388 13.0789 20.9556 13.7291 21.2223 14.446C21.4724 15.1462 21.6057 15.863 21.6057 16.6132C21.6057 18.0469 21.2723 19.2305 20.6055 20.1641C19.9386 21.0977 19.0051 21.7979 17.9215 22.198C16.7878 22.6148 15.5375 22.7648 14.1705 22.7648C13.7704 22.7648 13.5036 22.7648 13.3369 22.7482C13.1702 22.7315 12.9368 22.7315 12.6201 22.7315V28.0829C12.6367 28.1996 12.5534 28.2996 12.4367 28.3163C12.42 28.3163 12.4033 28.3163 12.37 28.3163H9.20249C9.06914 28.3163 9.00244 28.2496 9.00244 28.0996ZM12.6367 13.9792V19.5806C12.8701 19.5973 13.0868 19.614 13.2869 19.614H14.1705C14.8206 19.614 15.4708 19.5139 16.0876 19.3139C16.6211 19.1639 17.0879 18.8471 17.4547 18.4303C17.8048 18.0135 17.9715 17.4468 17.9715 16.7132C17.9881 16.1964 17.8548 15.6796 17.588 15.2295C17.3046 14.7961 16.9045 14.4626 16.4211 14.2793C15.8042 14.0292 15.1374 13.9292 14.4539 13.9458C14.0204 13.9458 13.637 13.9458 13.3203 13.9625C12.9868 13.9458 12.7534 13.9625 12.6367 13.9792Z" fill="#31A8FF"/>
<path d="M32.0083 18.5636C31.5081 18.2968 30.9746 18.1134 30.4079 17.9967C29.791 17.8634 29.1742 17.78 28.5407 17.78C28.2073 17.7634 27.8572 17.8134 27.5404 17.8967C27.3237 17.9467 27.1403 18.0634 27.0236 18.2302C26.9403 18.3635 26.8903 18.5302 26.8903 18.6802C26.8903 18.8303 26.9569 18.9803 27.057 19.1137C27.207 19.2971 27.4071 19.4471 27.6238 19.5638C28.0072 19.7639 28.4073 19.9472 28.8074 20.114C29.7077 20.4141 30.5745 20.8308 31.3747 21.331C31.9249 21.6811 32.375 22.1478 32.6918 22.7147C32.9585 23.2481 33.0919 23.8316 33.0752 24.4318C33.0919 25.2153 32.8585 25.9988 32.425 26.649C31.9583 27.3159 31.3081 27.8327 30.5579 28.1328C29.741 28.4828 28.7407 28.6662 27.5404 28.6662C26.7735 28.6662 26.0233 28.5995 25.2731 28.4495C24.6897 28.3495 24.1062 28.1661 23.5727 27.916C23.456 27.8493 23.3726 27.7327 23.3893 27.5993V24.6985C23.3893 24.6485 23.406 24.5818 23.456 24.5485C23.506 24.5151 23.5561 24.5318 23.6061 24.5651C24.2562 24.9486 24.9397 25.2153 25.6733 25.382C26.3068 25.5487 26.9736 25.6321 27.6404 25.6321C28.2739 25.6321 28.7241 25.5487 29.0241 25.3987C29.2909 25.282 29.4743 24.9986 29.4743 24.6985C29.4743 24.4651 29.3409 24.2484 29.0741 24.0316C28.8074 23.8149 28.2573 23.5649 27.4404 23.2481C26.5902 22.948 25.8066 22.5479 25.0731 22.0478C24.5563 21.6811 24.1228 21.1976 23.8061 20.6308C23.5394 20.0973 23.406 19.5138 23.4227 18.9303C23.4227 18.2135 23.6227 17.53 23.9895 16.9131C24.4063 16.2463 25.0231 15.7128 25.7399 15.3794C26.5235 14.9793 27.5071 14.7959 28.6907 14.7959C29.3742 14.7959 30.0744 14.8459 30.7579 14.9459C31.2581 15.0126 31.7415 15.146 32.1916 15.3294C32.2583 15.346 32.325 15.4127 32.3584 15.4794C32.375 15.5461 32.3917 15.6128 32.3917 15.6795V18.3968C32.3917 18.4635 32.3584 18.5302 32.3084 18.5636C32.1583 18.5969 32.0749 18.5969 32.0083 18.5636Z" fill="#31A8FF"/>
</g>
<defs>
<clipPath id="clip0_209_193">
<rect width="40.0105" height="40.0105" fill="white" transform="translate(0 0.341797)"/>
</clipPath>
</defs>
</svg>
