<svg width="41" height="40" viewBox="0 0 41 40" fill="none" xmlns="http://www.w3.org/2000/svg">
<g clip-path="url(#clip0_209_77)">
<path d="M20.5767 23.6017C22.5056 23.6017 24.0692 22.038 24.0692 20.1092C24.0692 18.1803 22.5056 16.6167 20.5767 16.6167C18.6479 16.6167 17.0842 18.1803 17.0842 20.1092C17.0842 22.038 18.6479 23.6017 20.5767 23.6017Z" fill="#61DAFB"/>
<path d="M20.5766 27.2643C30.9265 27.2643 39.3168 24.0608 39.3168 20.109C39.3168 16.1572 30.9265 12.9536 20.5766 12.9536C10.2267 12.9536 1.83643 16.1572 1.83643 20.109C1.83643 24.0608 10.2267 27.2643 20.5766 27.2643Z" stroke="#61DAFB" stroke-width="2"/>
<path d="M14.3799 23.6867C19.5549 32.65 26.5243 38.3144 29.9467 36.3385C33.3691 34.3626 31.9483 25.4947 26.7733 16.5314C21.5983 7.56802 14.6288 1.90362 11.2065 3.87952C7.78412 5.85541 9.20489 14.7234 14.3799 23.6867Z" stroke="#61DAFB" stroke-width="2"/>
<path d="M14.3799 16.5313C9.20492 25.4946 7.78411 34.3626 11.2065 36.3385C14.6288 38.3144 21.5984 32.65 26.7733 23.6867C31.9483 14.7234 33.369 5.85542 29.9467 3.87952C26.5244 1.90362 19.5548 7.56803 14.3799 16.5313Z" stroke="#61DAFB" stroke-width="2"/>
</g>
<defs>
<clipPath id="clip0_209_77">
<rect width="40.0105" height="39.6143" fill="white" transform="translate(0.647949 0.301758)"/>
</clipPath>
</defs>
</svg>
