<svg width="41" height="41" viewBox="0 0 41 41" fill="none" xmlns="http://www.w3.org/2000/svg">
<path d="M35.1531 22.5839C33.7572 22.5913 32.5441 22.9274 31.5283 23.4244C31.1556 22.6862 30.7829 22.0285 30.7171 21.5462C30.644 20.9835 30.5563 20.64 30.644 19.9677C30.7317 19.2953 31.1263 18.3379 31.119 18.2649C31.1117 18.1918 31.0313 17.8483 30.2275 17.841C29.4236 17.8337 28.7293 17.9945 28.6489 18.2064C28.5685 18.4184 28.415 18.9007 28.3127 19.3976C28.1739 20.1284 26.7049 22.7374 25.8645 24.104C25.5941 23.5705 25.3603 23.1028 25.3091 22.7301C25.236 22.1674 25.1483 21.8239 25.236 21.1516C25.3237 20.4792 25.7184 19.5219 25.711 19.4488C25.7038 19.3757 25.6234 19.0322 24.8195 19.0249C24.0156 19.0176 23.3213 19.1784 23.2409 19.3903C23.1605 19.6022 23.0728 20.0992 22.9047 20.5815C22.7367 21.0639 20.7854 25.4195 20.2739 26.5449C20.0108 27.1222 19.7842 27.5826 19.6234 27.8969C19.6234 27.8969 19.6161 27.9189 19.5942 27.9554C19.4554 28.2258 19.375 28.3719 19.375 28.3719C19.375 28.3719 19.375 28.3719 19.375 28.3793C19.2654 28.5765 19.1484 28.7593 19.0899 28.7593C19.0461 28.7593 18.9657 28.2331 19.1046 27.5169C19.3969 26.0041 20.0912 23.6509 20.0838 23.5705C20.0838 23.5267 20.2154 23.1174 19.6307 22.9055C19.0607 22.6936 18.8561 23.0443 18.805 23.0443C18.7538 23.0443 18.7173 23.1686 18.7173 23.1686C18.7173 23.1686 19.3531 20.5231 17.5041 20.5231C16.3494 20.5231 14.7563 21.7874 13.967 22.9274C13.47 23.1978 12.4104 23.7752 11.2776 24.3963C10.8464 24.6375 10.4007 24.8787 9.98408 25.1052C9.95487 25.076 9.92563 25.0395 9.89638 25.0102C7.66011 22.6205 3.52376 20.9323 3.69915 17.7241C3.76493 16.5548 4.16687 13.4854 11.643 9.75829C17.7964 6.72542 22.6928 7.56584 23.5406 9.42941C24.7537 12.0895 20.917 17.0298 14.559 17.746C12.1327 18.0164 10.8611 17.081 10.5395 16.7302C10.2033 16.3648 10.1522 16.3429 10.0279 16.4159C9.82332 16.5255 9.95487 16.8544 10.0279 17.0444C10.2179 17.5414 10.9999 18.4183 12.3227 18.8495C13.492 19.2295 16.3348 19.4415 19.7769 18.1114C23.6283 16.6206 26.6392 12.4769 25.7549 9.00553C24.8706 5.48305 19.0242 4.32107 13.492 6.28694C10.2033 7.45625 6.637 9.29785 4.07186 11.6949C1.0244 14.5451 0.542066 17.0225 0.739384 18.0602C1.44827 21.7435 6.52738 24.1405 8.55903 25.9164C8.45672 25.9749 8.3617 26.026 8.28132 26.0699C7.26549 26.5741 3.39221 28.5985 2.42755 30.7398C1.33134 33.166 2.60294 34.9054 3.44337 35.1392C6.05237 35.8627 8.73439 34.5619 10.1741 32.4133C11.6138 30.2647 11.4384 27.4731 10.7734 26.1941C10.766 26.1795 10.7588 26.1649 10.7441 26.1503C11.0072 25.9968 11.2776 25.836 11.5407 25.6825C12.0596 25.3756 12.5712 25.0906 13.0096 24.8568C12.7612 25.5364 12.5784 26.3476 12.4908 27.5169C12.3812 28.8908 12.9439 30.674 13.682 31.3756C14.0109 31.6825 14.3982 31.6898 14.6466 31.6898C15.509 31.6898 15.8963 30.9736 16.3275 30.1259C16.8537 29.0881 17.3287 27.8823 17.3287 27.8823C17.3287 27.8823 16.7367 31.1417 18.3445 31.1417C18.9292 31.1417 19.5211 30.3817 19.7842 29.9943C19.7842 30.0016 19.7842 30.0016 19.7842 30.0016C19.7842 30.0016 19.7988 29.9797 19.8281 29.9285C19.8865 29.8336 19.9231 29.7751 19.9231 29.7751C19.9231 29.7751 19.9231 29.7678 19.9231 29.7605C20.1569 29.3512 20.6831 28.4231 21.4651 26.8811C22.4736 24.8933 23.4456 22.4086 23.4456 22.4086C23.4456 22.4086 23.5333 23.0151 23.8329 24.0236C24.0083 24.6156 24.3737 25.266 24.666 25.8945C24.4321 26.2234 24.286 26.4061 24.286 26.4061C24.286 26.4061 24.286 26.4061 24.2933 26.4134C24.1033 26.6618 23.8986 26.9322 23.6721 27.1953C22.8755 28.1454 21.9255 29.2343 21.7939 29.5485C21.6405 29.9213 21.677 30.1916 21.9693 30.4109C22.1813 30.5717 22.5613 30.5936 22.9486 30.5717C23.6648 30.5205 24.169 30.3451 24.4175 30.2355C24.8048 30.0966 25.258 29.8847 25.6818 29.5704C26.4638 28.9931 26.9388 28.1673 26.895 27.0784C26.873 26.4792 26.6757 25.8799 26.4346 25.3172C26.5077 25.2149 26.5734 25.1125 26.6465 25.0102C27.8816 23.2051 28.8389 21.2247 28.8389 21.2247C28.8389 21.2247 28.9266 21.8312 29.2262 22.8397C29.3724 23.3513 29.672 23.9067 29.9351 24.4475C28.7731 25.3902 28.0569 26.4864 27.8012 27.2026C27.3408 28.5327 27.6988 29.132 28.3785 29.2708C28.6855 29.3366 29.1239 29.1904 29.4455 29.0516C29.8547 28.92 30.3371 28.6935 30.7975 28.3573C31.5794 27.78 32.3322 26.9761 32.2883 25.8872C32.2664 25.3902 32.1348 24.9006 31.9522 24.4256C32.9387 24.0163 34.2104 23.7898 35.8327 23.9798C39.3114 24.389 39.9984 26.5595 39.8668 27.4731C39.7352 28.3865 39.0045 28.8835 38.7633 29.037C38.5221 29.1904 38.4417 29.2416 38.4636 29.3512C38.4929 29.512 38.6098 29.5047 38.8144 29.4755C39.0994 29.4243 40.6414 28.7374 40.7072 27.0565C40.817 24.9079 38.7706 22.562 35.1531 22.5839ZM8.31784 31.6313C7.16318 32.8883 5.5554 33.3634 4.86114 32.9614C4.11572 32.5302 4.40804 30.674 5.82579 29.3439C6.68814 28.5327 7.79899 27.78 8.5371 27.3196C8.70519 27.2173 8.95365 27.0711 9.25329 26.8884C9.30446 26.8592 9.33367 26.8445 9.33367 26.8445C9.39213 26.808 9.45062 26.7715 9.50908 26.7349C10.0279 28.635 9.531 30.3086 8.31784 31.6313ZM16.7221 25.9164C16.3202 26.8957 15.4798 29.4024 14.9682 29.2635C14.5297 29.1466 14.2593 27.2465 14.8805 25.3683C15.1948 24.4256 15.8598 23.3001 16.2471 22.8616C16.8756 22.1601 17.5699 21.9262 17.738 22.2112C17.9499 22.5839 16.9706 25.3025 16.7221 25.9164ZM23.6575 29.2343C23.4894 29.322 23.3286 29.3804 23.2556 29.3366C23.2044 29.3074 23.3286 29.1904 23.3286 29.1904C23.3286 29.1904 24.1983 28.255 24.5418 27.8312C24.7391 27.5826 24.9729 27.2903 25.2214 26.9615C25.2214 26.9907 25.2214 27.0273 25.2214 27.0565C25.2214 28.1746 24.1398 28.9274 23.6575 29.2343ZM29.007 28.0138C28.8828 27.9261 28.9047 27.6338 29.3212 26.7203C29.482 26.3622 29.8621 25.763 30.5125 25.1856C30.5856 25.4195 30.6367 25.646 30.6294 25.858C30.6221 27.2684 29.6136 27.7946 29.007 28.0138Z" fill="#CD6799"/>
</svg>
