<svg width="41" height="41" viewBox="0 0 41 41" fill="none" xmlns="http://www.w3.org/2000/svg">
<g clip-path="url(#clip0_209_10)">
<path d="M20.4198 8.0022C15.0849 8.0022 11.7508 10.6689 10.4169 16.0018C12.4177 13.3351 14.7517 12.3355 17.4189 13.0019C18.9409 13.3821 20.0286 14.4863 21.2328 15.7081C23.1941 17.6983 25.464 20.0018 30.4227 20.0018C35.7571 20.0018 39.0917 17.3351 40.425 12.0017C38.4248 14.6684 36.0908 15.6686 33.4231 15.0022C31.9016 14.6219 30.8139 13.5177 29.6097 12.2959C27.6484 10.3056 25.378 8.0022 20.4198 8.0022ZM10.4169 20.0018C5.08252 20.0018 1.7479 22.6685 0.414551 28.0019C2.41483 25.3352 4.74883 24.3351 7.41653 25.002C8.93797 25.3828 10.0257 26.4864 11.2299 27.7077C13.1912 29.698 15.4616 32.0019 20.4198 32.0019C25.7547 32.0019 29.0888 29.3352 30.4227 24.0019C28.4219 26.6686 26.0879 27.6687 23.4207 27.0018C21.8987 26.622 20.811 25.5173 19.6068 24.296C17.6455 22.3058 15.3756 20.0018 10.4169 20.0018Z" fill="#06B6D4"/>
</g>
<defs>
<clipPath id="clip0_209_10">
<rect width="40.0105" height="40.0105" fill="white" transform="translate(0.414551)"/>
</clipPath>
</defs>
</svg>
