<svg width="41" height="41" viewBox="0 0 41 41" fill="none" xmlns="http://www.w3.org/2000/svg">
<g clip-path="url(#clip0_209_86)">
<path d="M0.700928 0.302002H40.7114V40.3123H0.700928V0.302002Z" fill="#017ACB"/>
<path d="M19.9124 15.1185H21.8316V18.4319H16.6427V33.1733L16.5052 33.2108C16.3177 33.2608 13.8483 33.2608 13.3169 33.2046L12.8918 33.167V18.4319H7.70288V15.1185L9.34707 15.0998C10.2473 15.0873 12.5604 15.0873 14.4859 15.0998C16.4114 15.1123 18.8496 15.1185 19.9124 15.1185ZM34.56 31.6104C33.7973 32.4168 32.9783 32.867 31.6154 33.2358C31.0215 33.3983 30.9215 33.4046 29.5837 33.3983C28.2458 33.3921 28.1395 33.3921 27.4894 33.2233C25.8077 32.7919 24.451 31.948 23.5258 30.7539C23.2632 30.4163 22.8319 29.7161 22.8319 29.6286C22.8319 29.6036 22.8944 29.5473 22.9756 29.5098C23.0569 29.4723 23.2257 29.366 23.3633 29.2848C23.5008 29.2035 23.7508 29.0535 23.9197 28.9659C24.0885 28.8784 24.5761 28.5908 25.0012 28.3345C25.4263 28.0782 25.8139 27.8719 25.8577 27.8719C25.9015 27.8719 25.9827 27.9594 26.0452 28.0657C26.4203 28.6971 27.2955 29.5036 27.9145 29.7787C28.2958 29.9412 29.1398 30.1225 29.5461 30.1225C29.9212 30.1225 30.6089 29.96 30.9778 29.7911C31.3716 29.6099 31.5717 29.4286 31.8092 29.066C31.9718 28.8097 31.9905 28.7409 31.9843 28.2533C31.9843 27.8031 31.9593 27.6781 31.8342 27.4718C31.4842 26.8966 31.009 26.5966 29.0835 25.7463C27.0955 24.8649 26.2015 24.3397 25.4763 23.6333C24.9387 23.1082 24.8324 22.9644 24.4948 22.3079C24.0572 21.464 24.0009 21.1889 23.9947 19.9323C23.9884 19.0509 24.0072 18.7633 24.1009 18.4632C24.2323 18.0131 24.6574 17.1441 24.8511 16.9253C25.2512 16.4564 25.395 16.3126 25.6764 16.0813C26.5266 15.3811 27.852 14.9185 29.121 14.8748C29.2648 14.8748 29.7399 14.8998 30.1838 14.931C31.4592 15.0373 32.3281 15.3499 33.1658 16.0188C33.7973 16.5189 34.7538 17.6942 34.66 17.8505C34.5975 17.9443 32.1031 19.6072 31.9405 19.6572C31.8405 19.6885 31.7718 19.651 31.6342 19.4884C30.784 18.4694 30.4401 18.2506 29.6149 18.2006C29.0273 18.1631 28.7147 18.2319 28.3208 18.4944C27.9082 18.7695 27.7082 19.1884 27.7082 19.7698C27.7144 20.62 28.0395 21.0201 29.2398 21.614C30.015 21.9953 30.6777 22.3079 30.7277 22.3079C30.8027 22.3079 32.4094 23.1082 32.8283 23.3582C34.7788 24.5023 35.5727 25.6776 35.779 27.7031C35.9291 29.2285 35.4977 30.6226 34.56 31.6104Z" fill="white"/>
</g>
<defs>
<clipPath id="clip0_209_86">
<rect width="40.0105" height="40.0105" fill="white" transform="translate(0.700928 0.301758)"/>
</clipPath>
</defs>
</svg>
