<svg width="41" height="41" viewBox="0 0 41 41" fill="none" xmlns="http://www.w3.org/2000/svg">
<g clip-path="url(#clip0_209_164)">
<path d="M0.380667 15.1089C0.380667 15.1089 -0.593839 14.4065 0.575567 13.4685L3.30012 11.0322C3.30012 11.0322 4.07971 10.212 4.90401 10.9267L30.0462 29.962V39.0899C30.0462 39.0899 30.0341 40.5233 28.1947 40.3649L0.380667 15.1089Z" fill="#2489CA"/>
<path d="M6.86113 20.9922L0.380678 26.8839C0.380678 26.8839 -0.285235 27.3793 0.380678 28.2644L3.38947 31.0012C3.38947 31.0012 4.10409 31.7686 5.15981 30.8956L12.0301 25.6861L6.86113 20.9922Z" fill="#1070B3"/>
<path d="M18.2384 21.0411L30.1234 11.966L30.0462 2.88678C30.0462 2.88678 29.5387 0.905283 27.8455 1.93664L12.03 16.331L18.2384 21.0411Z" fill="#0877B9"/>
<path d="M28.1946 40.3768C28.8849 41.0835 29.7214 40.8519 29.7214 40.8519L38.9832 36.288C40.1689 35.48 40.0024 34.477 40.0024 34.477V7.2233C40.0024 6.02547 38.7762 5.61132 38.7762 5.61132L30.7487 1.74169C28.9946 0.657552 27.8455 1.93659 27.8455 1.93659C27.8455 1.93659 29.3234 0.872756 30.0462 2.88674V38.9232C30.0462 39.1709 29.9934 39.4145 29.8878 39.6338C29.6767 40.0602 29.2179 40.4581 28.1175 40.2916L28.1946 40.3768Z" fill="#3C99D4"/>
</g>
<defs>
<clipPath id="clip0_209_164">
<rect width="40.0105" height="40.0105" fill="white" transform="translate(0 0.905273)"/>
</clipPath>
</defs>
</svg>
