<svg width="253" height="15" viewBox="0 0 253 15" fill="none" xmlns="http://www.w3.org/2000/svg">
<path d="M2 10.4862C6.78371 7.51753 14.7239 4.57223 19.6805 8.94324C23.0109 11.8802 26.2679 11.9 29.2574 8.94324C32.1682 6.06436 35.6147 4.85571 39.571 5.08588C43.5592 5.31791 46.3608 9.53245 49.8846 11.0862C55.4943 13.5597 59.7771 7.3187 64.4546 5.68592C73.0238 2.69466 78.7346 12.6145 86.5552 12.8006C91.8296 12.9261 95.9282 9.48184 100.88 8.00033C108.315 5.77555 114.411 13.1625 121.712 11.9863C127.673 11.0258 130.726 4.21306 137.591 5.1716C143.768 6.0341 148.288 14.5632 154.903 11.5148C160.297 9.02943 164.082 3.28165 170.783 5.51448C175.327 7.02863 184.808 16.4576 189.405 11.6434C190.749 10.2357 191.347 7.70768 193.62 7.44315C196.852 7.06709 203.12 6.31746 205.735 8.5575C207.985 10.4859 214.025 10.9975 216.826 11.2148C219.333 11.4093 223.304 11.6578 225.175 9.37183C227.627 6.37669 233.679 5.21871 236.676 7.78603C242.531 12.8033 246.311 5.68262 251 2" stroke="#89E7E1" stroke-width="3" stroke-linecap="round"/>
</svg>
