<svg width="248" height="57" viewBox="0 0 248 57" fill="none" xmlns="http://www.w3.org/2000/svg">
<path d="M186.952 46.1459C160.6 52.9376 95.3058 50.9971 76.176 50.9971C58.2697 50.9971 40.4795 48.6946 22.9465 45.3218C12.2809 43.2701 0.104426 35.4007 2.24767 24.4266C2.67955 22.2153 4.55746 20.5877 6.48426 19.27C13.1788 14.6915 21.3708 12.2828 29.3619 10.1653C45.9024 5.7821 61.8138 3.26676 79.051 2.672C104.558 1.7919 130.22 1.84667 155.733 2.43028C168.807 2.72934 181.849 2.65701 194.892 3.63887C203.524 4.28869 210.897 6.03735 218.919 8.79553C227.267 11.6656 238.107 14.3092 243.612 21.15C246.715 25.0052 247.076 29.0391 243.007 32.3496C233.847 39.8016 222.554 44.1603 210.864 47.6013C198.715 51.1774 178.64 53.7534 165.968 54.8781C121.396 55.9221 106.432 50.0269 94.232 46.1459" stroke="#1A73E8" stroke-width="3" stroke-linecap="round"/>
</svg>
