<svg width="200" height="44" viewBox="0 0 200 44" fill="none" xmlns="http://www.w3.org/2000/svg">
<path d="M151.084 35.9835C129.7 41.3656 76.7154 39.8279 61.192 39.8279C46.6615 39.8279 32.2252 38.0033 17.9975 35.3305C9.34269 33.7046 -0.538212 27.4685 1.20098 18.772C1.55144 17.0196 3.07531 15.7299 4.63887 14.6856C10.0713 11.0574 16.7189 9.14866 23.2035 7.47058C36.6258 3.99714 49.5374 2.00384 63.525 1.53253C84.2234 0.835093 105.047 0.878497 125.751 1.34098C136.36 1.57797 146.943 1.52065 157.527 2.29873C164.531 2.81368 170.515 4.19941 177.025 6.38513C183.798 8.6595 192.595 10.7544 197.063 16.1755C199.58 19.2305 199.873 22.4272 196.571 25.0506C189.138 30.956 179.974 34.41 170.488 37.1369C160.629 39.9708 144.339 42.0121 134.056 42.9034C97.8873 43.7308 85.744 39.059 75.844 35.9835" stroke="#1A73E8" stroke-width="2" stroke-linecap="round"/>
</svg>
