<svg xmlns="http://www.w3.org/2000/svg" width="90" height="22" viewBox="0 0 90 22" fill="none">
<path d="M72.7108 4.33828C74.1544 5.21619 75.1167 6.67255 75.1167 8.33879C75.1167 9.43938 74.7328 10.5604 73.9598 11.359C73.087 12.2625 71.8022 12.6029 70.6248 12.8819C69.7853 13.079 68.8075 13.1993 68.009 13.5218C67.1362 13.875 66.2378 14.4227 66.2378 15.508H75.2985V18.477H62.8695V15.9354C62.8695 14.3716 63.5964 12.9203 65.173 11.8376C66.3299 11.0442 67.6942 10.6244 69.0507 10.3582C70.2946 10.1125 71.902 9.98455 71.902 8.35671C71.902 6.76981 69.9107 6.26559 68.5644 6.34493C67.0108 6.43451 65.9076 7.04624 65.0809 7.93695L62.8567 5.92005C64.0417 4.52256 66.248 3.40918 68.5644 3.39126C70.0899 3.37846 71.5565 3.63697 72.7108 4.33828Z" fill="white"/>
<path d="M76.1993 11.9764C75.7335 12.5753 75.3163 13.3662 75.6925 14.541C75.9894 15.2039 76.509 15.854 77.9449 15.854H84.1517V18.4826H87.369V15.854H90.0002V13.187H87.369C87.369 13.187 87.369 5.55967 87.369 5.55199C87.369 4.40277 86.4757 3.55301 85.2753 3.4404C84.2797 3.34569 83.2072 3.69635 82.529 4.51795L76.1993 11.9764ZM84.1517 6.74472V13.187H78.6692L84.1517 6.74472Z" fill="white"/>
<path d="M44.1056 10.0208H35.8512C35.8512 10.0208 35.8512 8.55422 35.8512 8.30338C35.8512 7.15928 36.3017 6.55524 37.4944 6.55524H44.6892V3.58621H36.9441C34.1261 3.58621 32.6365 5.24989 32.6365 7.73006V18.4826H35.8538V12.6955H44.1082V10.0208H44.1056Z" fill="white"/>
<path d="M61.2853 10.0331C61.101 8.4155 60.2512 6.71086 59.1532 5.62307C57.7378 4.22302 55.8259 3.33743 53.6733 3.33743C49.4399 3.33743 46.0178 6.78765 46.0178 11.0185C46.0178 13.7751 47.487 16.1811 49.6728 17.5325C50.8886 18.2926 52.3014 18.6638 53.6912 18.6638C55.7926 18.6638 57.7762 17.791 59.1686 16.3628L56.8881 14.3612C56.069 15.1444 54.9019 15.6538 53.681 15.6564C52.4678 15.6538 51.2136 15.1444 50.3767 14.2845C49.9108 13.8058 49.5679 13.2632 49.3426 12.6924H61.1522C61.1496 12.695 61.4619 11.5791 61.2853 10.0331ZM49.1302 10.0305C49.3145 9.19103 49.7317 8.39502 50.3715 7.73979C51.8714 6.20664 54.2287 5.96605 55.9487 6.9361C57.208 7.64765 57.9605 8.82502 58.2267 10.0305H49.1302Z" fill="white"/>
<path d="M8.0343 15.9102C5.33402 15.905 3.1482 13.7218 3.14308 11.0241C3.1482 8.32634 5.33402 6.14308 8.0343 6.13796C9.32173 6.14052 10.4914 6.63962 11.3668 7.45099L13.7343 5.37266C12.2805 3.90862 10.2636 3 8.0343 3C3.59611 3 0.00255951 6.59099 0 11.0215C0 15.452 3.59611 19.043 8.0343 19.043C10.2483 19.043 12.2498 18.1497 13.7011 16.7036L11.5383 14.4231C10.6501 15.3394 9.40876 15.9076 8.0343 15.9102Z" fill="white"/>
<path d="M26.2604 3.59903V5.16801C25.3185 4.01623 23.4885 3.36099 21.8402 3.36099C17.6067 3.36099 14.177 6.79329 14.177 11.0267C14.177 15.2294 17.5811 18.6413 21.7404 18.6413C23.3861 18.6413 25.1419 18.1806 26.2604 16.8522V18.4851H29.4905V3.59903H26.2604ZM21.8325 15.6543C19.2627 15.6543 17.1793 13.5709 17.1793 11.0011C17.1793 8.43138 19.2627 6.34794 21.8325 6.34794C24.4022 6.34794 26.4857 8.43138 26.4857 11.0011C26.4857 13.5709 24.4022 15.6543 21.8325 15.6543Z" fill="white"/>
</svg>