<svg width="36" height="41" viewBox="0 0 36 41" fill="none" xmlns="http://www.w3.org/2000/svg">
<path d="M35.4809 0L32.2669 36.0052L17.8197 40.0103L3.4123 36.0109L0.20166 0H35.4809Z" fill="#264DE4"/>
<path d="M29.5153 33.7132L32.2619 2.94507H17.8413V36.9497L29.5153 33.7132Z" fill="#2965F1"/>
<path d="M7.56201 16.3005L7.95784 20.7171H17.8413V16.3005H7.56201Z" fill="#EBEBEB"/>
<path d="M17.8413 7.36108H17.826H6.7666L7.16807 11.7777H17.8413V7.36108Z" fill="#EBEBEB"/>
<path d="M17.8412 32.3661V27.771L17.8218 27.7762L12.903 26.448L12.5886 22.9255H10.1984H8.15503L8.77379 29.8602L17.8208 32.3718L17.8412 32.3661Z" fill="#EBEBEB"/>
<path d="M23.2647 20.7169L22.7521 26.4449L17.8262 27.7744V32.3693L26.8804 29.8599L26.9468 29.1138L27.9847 17.4863L28.0925 16.3004L28.8898 7.36108H17.8262V11.7777H24.0496L23.6477 16.3004H17.8262V20.7169H23.2647Z" fill="white"/>
</svg>
