<svg width="89" height="47" viewBox="0 0 89 47" fill="none" xmlns="http://www.w3.org/2000/svg">
<path d="M20.1499 14.144C19.0614 16.8047 19.1329 20.0341 18.8608 22.8451" stroke="#69D7D0" stroke-width="3" stroke-linecap="round"/>
<path d="M29.8174 13.4995C29.8174 16.6151 29.4951 19.718 29.4951 22.8451" stroke="#69D7D0" stroke-width="3" stroke-linecap="round"/>
<path d="M13.7046 26.0679C13.7046 27.8144 13.8663 31.4819 15.3338 32.6742C18.1692 34.9779 21.3598 35.0912 24.9122 35.0912C31.0821 35.0912 36.9075 30.7272 36.9075 24.1343" stroke="#69D7D0" stroke-width="3" stroke-linecap="round"/>
<path d="M25.628 2.22046C23.8272 2.22046 22.1656 2.33319 20.4718 3.02611C17.3518 4.30248 13.4951 4.17203 10.7681 6.30245C5.40594 10.4917 3.11564 17.7431 2.49672 24.2417C2.04264 29.0096 2.00869 34.8991 5.16434 38.7972C8.72567 43.1965 14.1255 44.7591 19.7019 44.7591C26.9266 44.7591 34.0066 45.6223 39.1272 39.6387C43.2708 34.7967 46.7047 28.4019 46.2349 21.8248C45.822 16.0449 41.8442 11.113 36.9788 8.34344C33.371 6.28976 29.9928 4.31801 25.9503 3.50951" stroke="#69D7D0" stroke-width="3" stroke-linecap="round"/>
<path d="M52.376 26.7124C53.3029 25.429 56.8073 24.1337 58.3378 24.9578C59.2856 25.4682 60.1547 26.1284 61.0771 26.6408C63.1099 27.7701 64.6927 25.5332 65.2665 23.812" stroke="#69D7D0" stroke-width="3" stroke-linecap="round"/>
<path d="M74.6123 9.63257C74.0314 13.367 74.6818 17.3418 75.0062 21.0908C75.0906 22.066 75.6689 23.9907 75.1852 24.9579C74.9999 25.3287 74.0209 24.8517 73.6455 25.0295C73.0723 25.3011 72.4853 26.2459 72.3744 26.8557C72.0853 28.4456 72.6677 28.2904 73.9678 28.0015C75.3632 27.6914 75.5791 26.3148 75.5791 25.1012" stroke="#69D7D0" stroke-width="3" stroke-linecap="round"/>
<path d="M74.6123 11.566C76.2157 9.07179 80.5392 8.10818 83.1702 7.12597C83.9794 6.82385 85.0877 6.15918 85.9631 6.15918C86.3844 6.15918 86.2606 7.84503 86.2854 8.09275C86.5324 10.5633 86.4893 12.9914 86.536 15.469C86.5607 16.7752 86.4662 16.392 85.5871 17.5458C85.2234 18.0232 82.7465 22.5229 84.4413 22.5229C87.0639 22.5229 87.1805 20.4311 87.1805 18.3335" stroke="#69D7D0" stroke-width="3" stroke-linecap="round"/>
<path d="M85.5692 11.5659C84.1023 12.8699 81.8273 13.2057 80.3414 14.5379C79.1629 15.5945 77.6436 16.269 76.5459 17.3666" stroke="#69D7D0" stroke-width="3" stroke-linecap="round"/>
</svg>
