<svg width="123" height="36" viewBox="0 0 123 36" fill="none" xmlns="http://www.w3.org/2000/svg">
<path d="M9.99616 7.3064C6.25325 8.83759 2.36865 12.1274 2.36865 16.3868C2.36865 18.8321 2.98036 21.6618 4.18473 23.8125C5.33277 25.8626 7.6807 29.8257 10.3594 29.8257" stroke="#69D7D0" stroke-width="3" stroke-linecap="round"/>
<path d="M21.2559 30.189H45.228" stroke="#69D7D0" stroke-width="3" stroke-linecap="round"/>
<path d="M56.8511 29.8257H77.5543" stroke="#69D7D0" stroke-width="3" stroke-linecap="round"/>
<path d="M85.9081 1.85815C88.8215 3.60622 92.5108 6.33539 94.2015 9.32423C95.6657 11.9128 95.3212 15.7547 95.3517 18.6467C95.3804 21.3746 94.702 23.6771 93.1724 25.9716C91.4655 28.5318 88.0746 30.1921 85.1816 30.9153" stroke="#69D7D0" stroke-width="3" stroke-linecap="round"/>
<path d="M111.317 4.26562C110.71 10.4893 109.963 16.6402 109.963 22.8886" stroke="#69D7D0" stroke-width="3" stroke-linecap="round"/>
<path d="M107.593 28.3062C107.624 28.842 107.884 31.449 108.27 30.6763" stroke="#69D7D0" stroke-width="3" stroke-linecap="round"/>
<path d="M121.475 2.91113C119.167 10.6277 116.986 17.9529 116.058 25.9359" stroke="#69D7D0" stroke-width="3" stroke-linecap="round"/>
<path d="M116.058 32.0308V34.0624" stroke="#69D7D0" stroke-width="3" stroke-linecap="round"/>
</svg>
