<svg width="102" height="56" viewBox="0 0 102 56" fill="none" xmlns="http://www.w3.org/2000/svg">
<path d="M6.45272 53.2913C4.70838 49.3772 2.8433 45.3743 2.10321 41.1187C1.59476 38.1952 2.98879 39.4529 5.75801 39.6991C9.83461 40.0615 13.8503 41.3302 17.8702 41.3302" stroke="#1A73E8" stroke-width="3" stroke-linecap="round"/>
<path d="M4.27832 40.7864C9.30365 46.3143 17.2469 51.1256 24.6365 52.8684C29.7892 54.0837 38.6007 55.426 43.6958 52.9892C50.55 49.7111 53.3151 34.726 42.6084 36.7087C39.1651 37.3464 36.456 37.4978 37.2621 41.8738C38.1553 46.7225 43.362 47.8089 47.5922 47.8544C52.0586 47.9024 56.1556 47.7521 59.1003 43.7767C61.526 40.502 63.5119 35.0054 64.0841 31" stroke="#1A73E8" stroke-width="3" stroke-linecap="round"/>
<path d="M48.5952 5.81543C43.6498 6.13795 41.392 6.58051 38.9101 10.658C37.4195 13.1068 37.7924 16.4923 39.7905 18.5984C41.3534 20.2458 43.8842 20.9625 46.1331 20.767C47.9757 20.6068 49.1186 19.6729 50.3561 18.4354" stroke="#1A73E8" stroke-width="3" stroke-linecap="round"/>
<path d="M57.4 5.52197C57.1715 9.97637 56.813 14.4146 56.813 18.8757C56.813 19.7129 57.1065 22.2076 57.1065 21.3703" stroke="#1A73E8" stroke-width="3" stroke-linecap="round"/>
<path d="M64.1499 7.28271C64.0416 8.16301 63.9446 9.0422 63.8564 9.9241" stroke="#1A73E8" stroke-width="3" stroke-linecap="round"/>
<path d="M62.9761 14.6199C62.9761 17.5851 63.2696 20.524 63.2696 23.4245" stroke="#1A73E8" stroke-width="3" stroke-linecap="round"/>
<path d="M76.4765 11.3916C73.4235 12.3276 70.5233 12.9167 69.3676 16.1526C68.8935 17.4801 69.279 18.6237 70.085 19.7397C71.3658 21.5131 73.498 21.9571 75.596 21.9571C77.5741 21.9571 77.9646 21.643 79.4114 20.1962" stroke="#1A73E8" stroke-width="3" stroke-linecap="round"/>
<path d="M82.6396 2C83.4668 6.34261 84.472 10.6523 85.3789 14.9787C85.6288 16.1713 86.1615 17.9539 86.1615 19.3158" stroke="#1A73E8" stroke-width="3" stroke-linecap="round"/>
<path d="M90.2704 6.40234C89.169 7.79187 87.8069 9.22578 86.9279 10.7884C86.6532 11.2767 86.6858 11.661 86.3246 12.1253C86.2038 12.2808 85.981 12.9878 86.292 13.0873C87.2289 13.3871 88.856 12.9619 89.7813 12.9243C91.4113 12.8581 93.0418 12.8591 94.6727 12.8591" stroke="#1A73E8" stroke-width="3" stroke-linecap="round"/>
<path d="M99.3687 2.29346C99.5818 5.54363 99.6621 8.72853 99.6621 11.9785" stroke="#1A73E8" stroke-width="3" stroke-linecap="round"/>
<path d="M99.9553 17.2615C99.7106 17.7816 99.6969 18.3304 99.9553 17.555" stroke="#1A73E8" stroke-width="3" stroke-linecap="round"/>
</svg>
