<svg width="41" height="41" viewBox="0 0 41 41" fill="none" xmlns="http://www.w3.org/2000/svg">
<g clip-path="url(#clip0_209_185)">
<path d="M8.0322 0.741699H33.8723C37.79 0.741699 40.9575 3.9092 40.9575 7.82688V32.6668C40.9575 36.5844 37.79 39.7519 33.8723 39.7519H8.0322C4.11452 39.7519 0.947021 36.5844 0.947021 32.6668V7.82688C0.947021 3.9092 4.11452 0.741699 8.0322 0.741699Z" fill="#330000"/>
<path d="M20.3355 24.1477H14.1339L12.8669 28.0654C12.8336 28.2154 12.7002 28.3155 12.5501 28.2988H9.41599C9.23262 28.2988 9.18261 28.1988 9.23262 27.9987L14.6007 12.5447C14.6507 12.378 14.7007 12.1946 14.7674 11.9945C14.8341 11.6444 14.8674 11.2777 14.8674 10.9109C14.8507 10.8276 14.9174 10.7442 15.0008 10.7275C15.0175 10.7275 15.0341 10.7275 15.0508 10.7275H19.3186C19.4519 10.7275 19.5186 10.7776 19.5353 10.8609L25.6202 28.032C25.6702 28.2154 25.6202 28.2988 25.4535 28.2988H21.9693C21.8526 28.3155 21.7359 28.2321 21.7025 28.1154L20.3355 24.1477ZM15.1008 20.7635H19.3353C19.2352 20.4134 19.1018 19.9966 18.9518 19.5632C18.8018 19.1131 18.6517 18.6296 18.5017 18.1295C18.335 17.6127 18.185 17.1125 18.0182 16.5957C17.8515 16.0789 17.7015 15.5955 17.5681 15.112C17.4348 14.6452 17.3181 14.2118 17.2013 13.8117H17.168C17.018 14.5285 16.8346 15.2454 16.6012 15.9622C16.3511 16.7624 16.1011 17.596 15.8344 18.4296C15.6009 19.2798 15.3509 20.0633 15.1008 20.7635Z" fill="#FF9A00"/>
<path d="M29.2544 13.5785C28.7042 13.5951 28.1708 13.3784 27.7707 12.995C27.3872 12.5782 27.1872 12.0281 27.2038 11.4613C27.1872 10.8944 27.4039 10.361 27.804 9.97752C28.2041 9.5941 28.7376 9.39404 29.2877 9.39404C29.9379 9.39404 30.438 9.5941 30.8048 9.97752C31.1716 10.3776 31.3716 10.9111 31.3549 11.4613C31.3716 12.0281 31.1716 12.5782 30.7715 12.995C30.388 13.3951 29.8212 13.6118 29.2544 13.5785ZM27.3872 28.0489V15.2122C27.3872 15.0455 27.4539 14.9788 27.604 14.9788H30.9048C31.0549 14.9788 31.1216 15.0622 31.1216 15.2122V28.0489C31.1216 28.2323 31.0549 28.3157 30.9048 28.3157H27.6373C27.4706 28.3157 27.3872 28.2157 27.3872 28.0489Z" fill="#FF9A00"/>
</g>
<defs>
<clipPath id="clip0_209_185">
<rect width="40.0105" height="40.0105" fill="white" transform="translate(0.947021 0.341797)"/>
</clipPath>
</defs>
</svg>
