<svg width="44" height="44" viewBox="0 0 44 44" fill="none" xmlns="http://www.w3.org/2000/svg">
<g clip-path="url(#clip0_209_150)">
<path d="M11.6036 33.7777L1.42871 25.71L6.48604 16.3179L20.9957 21.9773L11.6036 33.7777Z" fill="url(#paint0_linear_209_150)"/>
<path d="M43.0914 12.1637L42.3088 36.5472L26.1133 43.0495L16.3599 36.788L30.6287 21.9773L24.3673 8.31048L29.9665 1.56738L43.0914 12.1637Z" fill="url(#paint1_linear_209_150)"/>
<path d="M43.0913 12.1637L30.2674 27.3357L24.3672 8.31048L29.9664 1.56738L43.0913 12.1637Z" fill="url(#paint2_linear_209_150)"/>
<path d="M21.2365 35.8851L4.31857 42.0262L7.02785 32.5136L10.58 20.8335L0.947021 17.5824L7.02785 0.905273L20.2732 2.53084L33.2778 17.4018L21.2365 35.8851Z" fill="url(#paint3_linear_209_150)"/>
<path d="M35.2044 9.0332H9.19531V35.0423H35.2044V9.0332Z" fill="black"/>
<path d="M21.3569 30.1655H11.6035V31.7911H21.3569V30.1655Z" fill="white"/>
<path d="M18.6478 14.3916V12.4048H13.2292V14.3916H14.7946V21.1949H13.2292V23.1817H18.6478V21.1949H17.1427V14.3916H18.6478Z" fill="white"/>
<path d="M23.8255 23.3623C22.9826 23.3623 22.2601 23.1817 21.7182 22.8807C21.1764 22.5796 20.6947 22.1582 20.3335 21.7368L21.8387 20.051C22.1397 20.4122 22.4407 20.653 22.7417 20.8337C23.0428 21.0143 23.404 21.1347 23.7653 21.1347C24.1867 21.1347 24.5479 21.0143 24.849 20.7133C25.0898 20.4122 25.2102 19.9908 25.2102 19.3285V12.4048H27.6185V19.4489C27.6185 20.1112 27.5582 20.653 27.3776 21.1347C27.197 21.6163 26.9562 21.9776 26.5949 22.3388C26.2939 22.6398 25.8725 22.9409 25.3908 23.0613C24.9092 23.2419 24.4275 23.3623 23.8255 23.3623Z" fill="white"/>
</g>
<defs>
<linearGradient id="paint0_linear_209_150" x1="1.42257" y1="25.0413" x2="21.0061" y2="25.0413" gradientUnits="userSpaceOnUse">
<stop offset="0.2581" stop-color="#F97A12"/>
<stop offset="0.4591" stop-color="#B07B58"/>
<stop offset="0.7241" stop-color="#577BAE"/>
<stop offset="0.9105" stop-color="#1E7CE5"/>
<stop offset="1" stop-color="#087CFA"/>
</linearGradient>
<linearGradient id="paint1_linear_209_150" x1="16.4606" y1="15.8844" x2="48.7653" y2="33.7597" gradientUnits="userSpaceOnUse">
<stop stop-color="#F97A12"/>
<stop offset="0.0717995" stop-color="#CB7A3E"/>
<stop offset="0.1541" stop-color="#9E7B6A"/>
<stop offset="0.242" stop-color="#757B91"/>
<stop offset="0.3344" stop-color="#537BB1"/>
<stop offset="0.4324" stop-color="#387CCC"/>
<stop offset="0.5381" stop-color="#237CE0"/>
<stop offset="0.6552" stop-color="#147CEF"/>
<stop offset="0.7925" stop-color="#0B7CF7"/>
<stop offset="1" stop-color="#087CFA"/>
</linearGradient>
<linearGradient id="paint2_linear_209_150" x1="39.014" y1="26.7428" x2="30.0207" y2="-0.129891" gradientUnits="userSpaceOnUse">
<stop stop-color="#FE315D"/>
<stop offset="0.0784025" stop-color="#CB417E"/>
<stop offset="0.1601" stop-color="#9E4E9B"/>
<stop offset="0.2474" stop-color="#755BB4"/>
<stop offset="0.3392" stop-color="#5365CA"/>
<stop offset="0.4365" stop-color="#386DDB"/>
<stop offset="0.5414" stop-color="#2374E9"/>
<stop offset="0.6576" stop-color="#1478F3"/>
<stop offset="0.794" stop-color="#0B7BF8"/>
<stop offset="1" stop-color="#087CFA"/>
</linearGradient>
<linearGradient id="paint3_linear_209_150" x1="7.40137" y1="10.8231" x2="34.3758" y2="55.4401" gradientUnits="userSpaceOnUse">
<stop stop-color="#FE315D"/>
<stop offset="0.0402328" stop-color="#F63462"/>
<stop offset="0.1037" stop-color="#DF3A71"/>
<stop offset="0.1667" stop-color="#C24383"/>
<stop offset="0.2912" stop-color="#AD4A91"/>
<stop offset="0.5498" stop-color="#755BB4"/>
<stop offset="0.9175" stop-color="#1D76ED"/>
<stop offset="1" stop-color="#087CFA"/>
</linearGradient>
<clipPath id="clip0_209_150">
<rect width="42.1444" height="42.1444" fill="white" transform="translate(0.947021 0.905273)"/>
</clipPath>
</defs>
</svg>
