<svg width="41" height="41" viewBox="0 0 41 41" fill="none" xmlns="http://www.w3.org/2000/svg">
<g clip-path="url(#clip0_209_109)">
<path d="M3.29061 27.5196C3.32895 27.6063 3.37229 27.6864 3.41897 27.7664C3.44065 27.8131 3.47066 27.8614 3.49733 27.9047C3.54067 27.9914 3.58735 28.0748 3.63237 28.1582L3.8941 28.5983C3.94245 28.68 3.98913 28.76 4.04415 28.84C4.13584 28.9967 4.2442 29.1501 4.33923 29.3068C4.38257 29.3718 4.42258 29.4369 4.47093 29.5019C4.65431 29.7869 4.82103 30.0237 4.9994 30.2537C5.12612 30.4254 5.25279 30.5938 5.38951 30.7622C5.43452 30.8255 5.48453 30.8889 5.53122 30.9523L5.89964 31.3991C5.94465 31.4507 5.98966 31.5107 6.03804 31.5641C6.2014 31.7608 6.37477 31.9508 6.54817 32.1442C6.54817 32.1476 6.55317 32.1509 6.55649 32.1559C6.77155 32.426 7.00329 32.6661 7.25668 32.8794L7.26336 32.8861C7.39671 33.0228 7.53011 33.1578 7.67179 33.2912L7.84019 33.4529C8.02524 33.6263 8.21029 33.798 8.40534 33.9647C8.40866 33.9647 8.41034 33.9681 8.41366 33.9697L8.50868 34.0531C8.67873 34.2015 8.85045 34.3482 9.0255 34.4849L9.23391 34.6599C9.37559 34.7733 9.52231 34.88 9.66735 34.9917L9.89409 35.165C10.0491 35.2818 10.2142 35.3951 10.3725 35.5085C10.4309 35.5502 10.4892 35.5918 10.5493 35.6302L10.5976 35.6685L11.0661 35.9753L11.2661 36.1086C11.5112 36.2654 11.7546 36.412 11.998 36.5588C12.068 36.5938 12.138 36.6321 12.2031 36.6722C12.3831 36.7755 12.5698 36.8805 12.7515 36.9756C12.8515 37.0322 12.9549 37.0806 13.0583 37.1323C13.1833 37.2023 13.3133 37.2706 13.4467 37.3407C13.4834 37.3523 13.5134 37.364 13.5434 37.3807L13.5501 37.374C13.6051 37.399 13.6568 37.4257 13.7101 37.4524C13.9102 37.5524 14.1186 37.6474 14.3353 37.7408C14.3753 37.7574 14.4186 37.7741 14.462 37.7975C14.7021 37.9025 14.9421 38.0025 15.1905 38.0992C15.2472 38.1159 15.3072 38.1442 15.3656 38.1659C15.5906 38.2509 15.8224 38.3376 16.0524 38.4193L16.1358 38.4493C16.3908 38.536 16.6426 38.6193 16.9026 38.6977C16.9627 38.7144 17.0244 38.736 17.0877 38.7527C17.3528 38.8327 17.6095 38.9277 17.8779 38.9778C35.0043 42.0837 39.9806 28.7316 39.9806 28.7316C35.7995 34.1498 28.3791 35.5785 21.3522 33.9881C21.0921 33.9281 20.8321 33.8447 20.5686 33.768C20.1969 33.6628 19.8283 33.5466 19.4634 33.4196L19.6217 33.4679L19.5184 33.4279C19.2916 33.3512 19.0733 33.2662 18.8515 33.1812C18.7973 33.1582 18.7422 33.137 18.6865 33.1178L18.6681 33.1128C18.4231 33.0145 18.1847 32.9144 17.948 32.8094C17.8963 32.7927 17.8529 32.7694 17.8012 32.7494C17.5208 32.6272 17.2429 32.4994 16.9677 32.366L17.1977 32.4677C17.1377 32.4411 17.0788 32.4122 17.021 32.381C16.8643 32.3076 16.7076 32.2243 16.5542 32.1459C16.4374 32.0906 16.3223 32.0316 16.2091 31.9692L16.2425 31.9858C16.0541 31.8858 15.8657 31.7775 15.6756 31.6758C15.619 31.6358 15.554 31.6024 15.489 31.5657C15.2064 31.4016 14.9274 31.2315 14.6521 31.0556L14.7571 31.119C14.6865 31.0754 14.6175 31.0292 14.5503 30.9806L14.5604 30.9873C14.3812 30.8772 14.2055 30.7616 14.0335 30.6405C13.9768 30.6038 13.9252 30.5638 13.8668 30.5238C13.6872 30.4012 13.5104 30.2745 13.3367 30.1437L13.3767 30.1721C13.3067 30.1154 13.2316 30.062 13.1566 30.007C13.0099 29.892 12.8615 29.7819 12.7148 29.6619L12.5181 29.5052C12.3085 29.3384 12.1028 29.1666 11.9013 28.9901L11.8996 28.9884L11.3211 28.4632L11.1544 28.3065C11.0177 28.1682 10.8777 28.0365 10.7376 27.8997L10.5759 27.7331C10.4033 27.5621 10.2349 27.387 10.0708 27.2079L10.0608 27.1962L10.0324 27.1729C9.85592 26.979 9.68199 26.7828 9.51063 26.5844C9.46562 26.5327 9.42397 26.4777 9.37727 26.4227L8.99881 25.9642C8.82825 25.75 8.66149 25.5326 8.49868 25.3124L8.43202 25.219C4.53428 19.9242 3.12389 12.6173 6.24309 6.62231L3.48899 10.1049C-0.0536409 15.1713 0.384814 21.7598 3.09388 27.1395C3.15557 27.2712 3.22392 27.3946 3.29061 27.5196Z" fill="#1266A9"/>
<path d="M15.223 20.2223L15.2042 20.1949L15.1887 20.1743L15.223 20.2223Z" fill="black"/>
<path d="M17.086 22.4081L17.236 22.5581C17.426 22.7415 17.6211 22.9199 17.8195 23.0983L17.8445 23.1199C18.0445 23.2967 18.2696 23.4817 18.5013 23.6618L18.5363 23.6885C18.593 23.7268 18.6414 23.7718 18.6964 23.8101C18.9298 23.9902 19.1648 24.1619 19.4099 24.3336L19.4349 24.3486C19.5383 24.4237 19.6483 24.492 19.765 24.5654C19.8117 24.5954 19.865 24.6354 19.9151 24.6654C20.0917 24.7787 20.2651 24.8838 20.4435 24.9921C20.4718 25.0038 20.4968 25.0188 20.5235 25.0305C20.6736 25.1222 20.8369 25.2105 20.9937 25.2906C21.0487 25.3239 21.102 25.3489 21.1587 25.3806C21.2704 25.4356 21.3804 25.4939 21.4871 25.5506L21.5405 25.574C21.7655 25.684 21.9956 25.7873 22.2207 25.889C22.2774 25.9107 22.3257 25.929 22.3741 25.9524C22.5591 26.0324 22.7475 26.1091 22.9325 26.1791C23.0159 26.2075 23.0942 26.2408 23.1726 26.2658C23.3426 26.3292 23.521 26.3875 23.6894 26.4459L23.9228 26.5209C24.1662 26.5959 24.4129 26.6942 24.6713 26.7343C37.8966 28.9115 40.9574 18.7805 40.9574 18.7805C38.2017 22.7265 32.8686 24.607 27.1854 23.1383C26.9016 23.0667 26.6203 22.9861 26.3418 22.8966L26.4368 22.9232C26.3568 22.9016 26.2868 22.8766 26.2101 22.8532C26.0367 22.7932 25.8583 22.7348 25.6899 22.6732L25.4499 22.5831C25.2632 22.5081 25.0731 22.4381 24.8914 22.3581C24.8347 22.3331 24.783 22.3164 24.7397 22.2914C24.5063 22.1864 24.2712 22.083 24.0428 21.973L23.6994 21.7946L23.501 21.6946C23.3476 21.6146 23.2059 21.5312 23.0592 21.4462C23.0218 21.4286 22.9856 21.4085 22.9509 21.3861L22.9559 21.3878C22.7792 21.2778 22.5958 21.1711 22.4257 21.0594C22.3691 21.0277 22.3174 20.9894 22.264 20.956L21.9173 20.731C21.6772 20.5643 21.4421 20.3859 21.2037 20.2125C21.1504 20.1641 21.0987 20.1241 21.047 20.0808C18.548 18.1253 16.5775 15.4529 15.6422 12.427C14.657 9.2812 14.8737 5.75356 16.5758 2.89111L14.4835 5.83858C11.9145 9.5079 12.0596 14.4126 14.0601 18.2936C14.4252 19.0105 14.7953 19.6157 15.2037 20.1925C15.5839 20.736 16.004 21.3728 16.5108 21.8096C16.6908 22.0147 16.8842 22.2097 17.086 22.4081Z" fill="#1266A9"/>
<path d="M23.7296 2.64772C22.2142 4.85996 22.0691 7.6074 23.1128 10.0464C24.2214 12.6371 26.487 14.671 29.1277 15.6346C29.2361 15.6762 29.3411 15.7113 29.4528 15.7513L29.5995 15.7963C29.7529 15.8446 29.9079 15.9013 30.0663 15.9363C37.37 17.3384 39.3472 12.2053 39.879 11.4501C38.1402 13.9341 35.2244 14.5309 31.6468 13.6657C31.3357 13.5899 31.0295 13.4952 30.7298 13.3823L30.7848 13.4006C30.412 13.2716 30.0469 13.1213 29.6912 12.9505L29.7546 12.9789C29.071 12.6454 28.4842 12.2854 27.9391 11.8719C24.7415 9.45457 22.7643 4.85164 24.8516 1.10229L23.7296 2.64772Z" fill="#1266A9"/>
</g>
<defs>
<clipPath id="clip0_209_109">
<rect width="40.0105" height="40.0105" fill="white" transform="translate(0.947021 0.301758)"/>
</clipPath>
</defs>
</svg>
