<svg width="44" height="43" viewBox="0 0 44 43" fill="none" xmlns="http://www.w3.org/2000/svg">
<path d="M8.35547 0.341797H36.272C40.5045 0.341797 43.9266 3.76383 43.9266 7.99634V34.8322C43.9266 39.0648 40.5045 42.4868 36.272 42.4868H8.35547C4.12296 42.4868 0.700928 39.0648 0.700928 34.8322V7.99634C0.700928 3.76383 4.12296 0.341797 8.35547 0.341797Z" fill="#00005B"/>
<path d="M10.967 29.8787V11.3277C10.967 11.2016 11.0211 11.1295 11.1471 11.1295C11.4533 11.1295 11.7415 11.1295 12.1557 11.1115C12.588 11.0935 13.0383 11.0935 13.5246 11.0755C14.0108 11.0575 14.5332 11.0575 15.0915 11.0395C15.6498 11.0215 16.1901 11.0215 16.7305 11.0215C18.2073 11.0215 19.4321 11.2016 20.4407 11.5798C21.3412 11.886 22.1697 12.3903 22.8541 13.0567C23.4304 13.633 23.8807 14.3354 24.1689 15.1099C24.439 15.8664 24.5831 16.6408 24.5831 17.4513C24.5831 19.0002 24.2229 20.279 23.5025 21.2876C22.782 22.2962 21.7734 23.0526 20.6028 23.4849C19.378 23.9351 18.0272 24.0972 16.5504 24.0972C16.1181 24.0972 15.8299 24.0972 15.6498 24.0792C15.4697 24.0612 15.2176 24.0612 14.8754 24.0612V29.8426C14.8934 29.9687 14.8033 30.0768 14.6772 30.0948H14.6052H11.1832C11.0391 30.0948 10.967 30.0227 10.967 29.8607V29.8787ZM14.8934 14.6236V20.6752C15.1455 20.6932 15.3797 20.7112 15.5958 20.7112H16.5504C17.2528 20.7112 17.9552 20.6032 18.6216 20.387C19.1979 20.2249 19.7022 19.8827 20.0985 19.4325C20.4767 18.9822 20.6568 18.3698 20.6568 17.5774C20.6748 17.019 20.5307 16.4607 20.2425 15.9744C19.9364 15.5061 19.5041 15.1459 18.9818 14.9478C18.3154 14.6777 17.595 14.5696 16.8565 14.5876C16.3883 14.5876 15.974 14.5876 15.6318 14.6056C15.2716 14.5876 15.0194 14.6056 14.8934 14.6236Z" fill="#9999FF"/>
<path d="M27.1767 15.6864H30.3286C30.5087 15.6864 30.6528 15.8125 30.7068 15.9746C30.7608 16.1187 30.7969 16.2627 30.8149 16.4248C30.8509 16.605 30.8869 16.8031 30.9049 16.9832C30.9229 17.1813 30.941 17.3974 30.941 17.6316C31.4813 17.0012 32.1297 16.4789 32.8681 16.0826C33.6966 15.6144 34.6512 15.3802 35.6057 15.3802C35.7318 15.3622 35.8399 15.4523 35.8579 15.5783V15.6504V19.1625C35.8579 19.3066 35.7678 19.3606 35.5697 19.3606C34.9213 19.3426 34.2549 19.3966 33.6245 19.5407C33.1022 19.6488 32.5979 19.8109 32.1116 20.027C31.7694 20.1891 31.4453 20.4052 31.1931 20.6934V29.8788C31.1931 30.0589 31.1211 30.131 30.959 30.131H27.4109C27.2668 30.149 27.1407 30.0589 27.1227 29.9148V29.8428V19.8649C27.1227 19.4326 27.1227 18.9824 27.1047 18.5141C27.0867 18.0458 27.0867 17.5775 27.0687 17.1092C27.0687 16.695 27.0326 16.2988 26.9966 15.8845C26.9786 15.7945 27.0326 15.7044 27.1227 15.6864C27.1227 15.6684 27.1587 15.6684 27.1767 15.6864Z" fill="#9999FF"/>
</svg>
