<svg width="57" height="57" viewBox="0 0 57 57" fill="none" xmlns="http://www.w3.org/2000/svg">
<rect width="57" height="57" rx="13" fill="#F06D48"/>
<path d="M35.7354 23.7051C35.4508 22.7402 35.0117 21.9176 34.418 21.2373C33.8242 20.5446 33.1068 20.0189 32.2656 19.6602C31.4245 19.2891 30.4658 19.1035 29.3896 19.1035C27.93 19.1035 26.6374 19.4746 25.5117 20.2168C24.3861 20.9466 23.5016 22.0228 22.8584 23.4453C22.2152 24.8555 21.8936 26.5563 21.8936 28.5479C21.8936 30.5518 22.209 32.265 22.8398 33.6875C23.4707 35.11 24.3551 36.1924 25.4932 36.9346C26.6436 37.6644 27.9795 38.0293 29.501 38.0293C30.8617 38.0293 32.043 37.7695 33.0449 37.25C34.0592 36.7181 34.8385 35.9635 35.3828 34.9863C35.9271 33.9967 36.1992 32.8587 36.1992 31.5723L37.2939 31.7393H29.9834V27.9355H40.875V31.1641C40.875 33.4154 40.3864 35.3883 39.4092 37.083C38.4443 38.7777 37.1022 40.0827 35.3828 40.998C33.6634 41.9134 31.6966 42.3711 29.4824 42.3711C27.0208 42.3711 24.8499 41.8145 22.9697 40.7012C21.1019 39.5755 19.6484 37.9736 18.6094 35.8955C17.5703 33.8174 17.0508 31.3805 17.0508 28.585C17.0508 25.7523 17.5827 23.2969 18.6465 21.2188C19.7103 19.1406 21.1699 17.5449 23.0254 16.4316C24.8809 15.3184 26.9775 14.7617 29.3154 14.7617C31.2822 14.7617 33.0758 15.139 34.6963 15.8936C36.3167 16.6481 37.6465 17.6995 38.6855 19.0479C39.737 20.3962 40.3988 21.9486 40.6709 23.7051H35.7354Z" fill="white"/>
</svg>
