<svg width="57" height="57" viewBox="0 0 57 57" fill="none" xmlns="http://www.w3.org/2000/svg">
<rect width="57" height="57" rx="13" fill="#01488B"/>
<path d="M34.2695 22.499C34.1953 21.7445 33.9417 21.0889 33.5088 20.5322C33.0882 19.9756 32.5068 19.5612 31.7646 19.2891C31.0348 19.0046 30.1813 18.8623 29.2041 18.8623C28.2145 18.8623 27.3486 19.0107 26.6064 19.3076C25.8766 19.6045 25.3076 20.0189 24.8994 20.5508C24.5036 21.0827 24.3057 21.695 24.3057 22.3877C24.3057 23.402 24.7262 24.1875 25.5674 24.7441C26.4209 25.3008 27.5342 25.7523 28.9072 26.0986L31.4121 26.7295C33.7995 27.2861 35.7106 28.1706 37.1455 29.3828C38.5804 30.5951 39.304 32.2835 39.3164 34.4482C39.3164 36.0192 38.9082 37.4046 38.0918 38.6045C37.2878 39.8044 36.1188 40.7383 34.585 41.4062C33.0635 42.0742 31.2389 42.4082 29.1113 42.4082C27.0332 42.4082 25.221 42.0866 23.6748 41.4434C22.141 40.7878 20.9473 39.8353 20.0938 38.5859C19.2402 37.3366 18.7764 35.8337 18.7021 34.0771H23.4521C23.5264 34.9925 23.8171 35.7656 24.3242 36.3965C24.8314 37.015 25.4932 37.485 26.3096 37.8066C27.126 38.1159 28.0475 38.2705 29.0742 38.2705C30.138 38.2705 31.0781 38.1097 31.8945 37.7881C32.7109 37.4665 33.3418 37.015 33.7871 36.4336C34.2448 35.8398 34.4736 35.1657 34.4736 34.4111C34.4736 33.7432 34.2819 33.1803 33.8984 32.7227C33.515 32.2526 32.9707 31.863 32.2656 31.5537C31.5729 31.2445 30.6947 30.9538 29.6309 30.6816L26.5693 29.9023C24.2686 29.2962 22.4997 28.4056 21.2627 27.2305C20.0381 26.0553 19.4258 24.5339 19.4258 22.666C19.4258 21.1074 19.8525 19.7344 20.7061 18.5469C21.5596 17.347 22.7347 16.4193 24.2314 15.7637C25.7282 15.0957 27.4105 14.7617 29.2783 14.7617C31.1462 14.7617 32.8037 15.0895 34.251 15.7451C35.7106 16.4007 36.8486 17.3161 37.665 18.4912C38.4814 19.654 38.9082 20.9899 38.9453 22.499H34.2695Z" fill="white"/>
</svg>
