<svg width="80" height="80" viewBox="0 0 80 80" fill="none" xmlns="http://www.w3.org/2000/svg">
<rect width="80" height="80" fill="#19AE5E"/>
<path d="M14.7369 55.2944C15.458 54.0853 16.1903 52.8931 16.8881 51.6808C19.2063 47.6658 20.9283 43.331 21.9994 38.8142C22.5532 36.4818 23.1601 34.1594 24.0567 31.9292C26.4969 25.8591 30.9622 22.117 37.2155 20.5471C40.4157 19.7438 43.6274 19.9613 46.752 21.0546C49.073 21.8668 50.9251 23.3583 52.4544 25.2634C53.0297 25.9801 53.5352 26.7535 54.0718 27.5016C54.1378 27.5936 54.1997 27.6887 54.3173 27.8611C54.6914 27.1663 55.0701 26.5339 55.3818 25.8698C56.1024 24.335 56.4796 22.6845 56.936 21.0601C57.2727 19.8613 57.6523 18.6743 58.0311 17.488C58.1303 17.2073 58.2593 16.9382 58.4161 16.6855C58.854 15.933 59.4024 15.6436 60.241 15.8588C61.9533 16.298 63.5055 17.0792 64.7158 18.4013C65.6709 19.4445 65.7226 20.6732 64.8396 21.7849C64.1205 22.6903 63.3094 23.5276 62.4895 24.3447C61.0788 25.7505 59.5301 27.0162 58.2571 28.5613C57.9221 28.9679 57.616 29.3988 57.3037 29.8238C57.238 29.9133 57.2033 30.0259 57.139 30.1597C57.292 30.2011 57.4171 30.2349 57.5421 30.2688C60.7677 31.1447 63.0791 33.1493 64.6189 36.0953C65.6081 37.988 66.1124 40.0217 66.2647 42.144C66.518 45.6739 65.8303 49.011 64.1787 52.1404C63.09 54.2013 61.6254 56.0375 59.8616 57.553C58.5275 58.7079 57.0405 59.6708 55.4432 60.4141C55.3568 60.4544 55.2759 60.5066 55.1921 60.5527C55.121 60.592 55.0496 60.6305 54.9246 60.6986C55.2856 60.1642 55.6208 59.6912 55.9323 59.2029C57.76 56.3374 56.8711 52.1807 53.6044 50.2848C52.4378 49.6078 51.1776 49.2769 49.8403 49.3889C48.4852 49.4897 47.2062 50.0581 46.2194 50.9981C45.0679 52.0772 44.3223 53.3788 44.058 54.9344C43.6042 57.6048 44.6704 59.8535 47.0253 61.2457C47.4628 61.5002 47.9144 61.7296 48.3776 61.9329C48.8384 62.1388 49.3174 62.3032 49.837 62.5047C49.3278 62.719 48.8595 62.943 48.3734 63.1161C46.7168 63.7056 45.0031 64.0096 43.2509 64.1017C42.4501 64.1439 41.6479 64.2274 40.8484 64.2076C39.6466 64.1778 38.4449 64.0951 37.2465 63.9948C36.2294 63.9096 35.2144 63.7863 34.2029 63.6474C31.1639 63.2387 28.177 62.5046 25.293 61.4575C21.9917 60.2505 18.9001 58.654 16.125 56.4697C15.6585 56.1024 15.2125 55.7087 14.7576 55.3264C14.7483 55.3175 14.7412 55.3065 14.7368 55.2944H14.7369Z" fill="white"/>
</svg>
