<svg width="26" height="12" viewBox="0 0 26 12" fill="none" xmlns="http://www.w3.org/2000/svg">
<path d="M17.5813 0.194702L17.5036 0.60427C17.3833 1.38046 17.4269 1.60253 17.7564 1.89058L18.0746 2.15665L17.745 3.64199C17.5481 4.52816 17.3066 5.27083 17.1533 5.51489C17.0216 5.72544 16.8683 6.0355 16.8351 6.20205C16.7802 6.40107 16.5936 6.60114 16.3086 6.77816C16.0568 6.92272 15.5624 7.31029 15.2121 7.62139C14.9323 7.87593 14.7395 8.03201 14.6348 8.09905L14.2928 8.37244C14.183 8.55052 14.1208 8.69402 14.097 8.80296C14.0731 8.91504 14.0866 8.98941 14.1218 9.04388C14.156 9.09626 14.2151 9.13292 14.2959 9.15596C14.3916 9.17863 14.4901 9.18675 14.5882 9.18005C14.8101 9.16474 15.0297 9.1254 15.2432 9.06274C15.3158 9.04283 15.3728 9.02398 15.4225 9.00722C15.4992 8.9119 15.6764 8.73173 15.9904 8.41853C16.8237 7.58787 17.1419 7.13326 16.8133 7.25582C16.6921 7.29981 16.747 7.18878 16.9553 6.96671C17.3947 6.5341 17.6466 5.88047 18.1731 3.83053C18.5897 2.21216 18.5897 2.18912 18.8965 2.18912C19.0405 2.18912 19.4478 2.21426 19.4478 2.21426V0.194702H18.513H17.5813ZM21.56 3.51C21.4936 3.51 21.3838 3.61056 21.3185 3.72159C21.1983 3.92062 21.3403 4.04213 23.1498 5.18389C24.2245 5.87209 25.0909 6.45868 25.0692 6.50372C25.0474 6.53619 24.1696 7.11336 23.1177 7.77852C21.2086 8.97475 21.1983 8.98627 21.3734 9.23033C21.5931 9.51839 21.3734 9.6179 23.8514 8.05505L25.6506 6.89129V6.01559L23.6431 4.7628C22.558 4.07565 21.6149 3.52152 21.56 3.51ZM4.88972 3.63256C4.83479 3.63256 3.89168 4.1982 2.80659 4.87383L0.777344 6.12663V7.00233L2.79519 8.27712C3.91448 8.97475 4.85759 9.55191 4.90112 9.55191C4.94465 9.55191 5.03274 9.45135 5.12083 9.32985C5.25245 9.1193 5.14156 9.03026 3.2885 7.84451C1.52354 6.72474 1.33699 6.56972 1.51318 6.44821C1.62303 6.37069 2.45629 5.84904 3.35587 5.28445C5.40687 4.00965 5.29702 4.09764 5.13223 3.83158C5.06694 3.72159 4.95605 3.62208 4.89076 3.63256H4.88972ZM13.8897 3.65665C13.5871 3.65456 12.9362 4.12069 10.9878 5.72858C10.9039 5.93075 10.8966 6.07006 10.935 6.16015C10.9598 6.22195 11.0054 6.2649 11.0686 6.29632C11.1308 6.32774 11.2117 6.3466 11.3008 6.35393C11.478 6.36964 11.6874 6.34136 11.8563 6.30784L11.9703 6.28166C12.0093 6.22876 12.0606 6.18633 12.1195 6.15805C12.2398 6.09101 12.7445 5.62593 13.2492 5.12732C14.1374 4.2181 14.3457 3.80749 13.984 3.67446C13.9543 3.66252 13.9216 3.65648 13.8897 3.65665ZM16.1656 4.28829C15.8992 4.29562 15.4194 4.60777 14.5975 5.27083C14.1851 5.60917 13.9239 5.79143 13.784 5.82914L13.2409 6.2628C13.0367 6.6399 13.0067 6.87349 13.0606 7.00233C13.0741 7.03411 13.0936 7.06288 13.1182 7.08697C13.1427 7.11106 13.1718 7.13 13.2036 7.14269C13.2828 7.17429 13.3672 7.19029 13.4523 7.18983C13.6557 7.18764 13.8579 7.15769 14.0534 7.10079C14.1553 7.07316 14.2559 7.041 14.355 7.00442L14.3851 6.99185L14.44 6.96252C14.5436 6.8274 14.782 6.57286 15.0805 6.27956C16.0236 5.35987 16.5055 4.70623 16.4071 4.46217C16.3625 4.3438 16.2858 4.2841 16.1656 4.28829ZM13.6534 5.41957C13.5767 5.42795 13.4047 5.56203 13.0948 5.83647C12.6471 6.23661 12.1589 6.46706 11.99 6.36441C11.9507 6.37337 11.9113 6.38175 11.8718 6.38955C11.6998 6.42411 11.4853 6.4524 11.2935 6.43668C11.2032 6.43115 11.1147 6.40878 11.0324 6.37069C10.9548 6.33483 10.8928 6.27148 10.8583 6.19262C10.8199 6.09834 10.8199 5.98103 10.8634 5.83123L10.1898 6.39059L8.66527 7.66539V9.73208L13.6606 5.75477C13.6597 5.71122 13.6653 5.66778 13.6772 5.62593C13.7156 5.48556 13.7135 5.41434 13.6534 5.42062V5.41957ZM15.8029 6.08892C15.7272 6.08892 15.6008 6.19681 15.3987 6.41364C15.124 6.71008 14.6918 6.99709 14.4628 7.05575L14.4276 7.0746C14.39 7.0903 14.3519 7.10497 14.3136 7.1186C14.2514 7.13955 14.1705 7.16469 14.0773 7.18983C13.8907 7.24115 13.6586 7.28829 13.4513 7.28305C13.3536 7.28293 13.2568 7.26372 13.1663 7.22649C13.081 7.19095 13.0126 7.12336 12.9756 7.03794C12.9155 6.89234 12.9393 6.68808 13.0709 6.39793L8.66423 9.90596V11.1682H10.6002L14.7064 7.9084C14.8131 7.78899 14.9737 7.62558 15.1903 7.42132C15.7707 6.87768 15.9023 6.69018 15.9023 6.41259C15.9023 6.19681 15.8785 6.08787 15.8029 6.08787V6.08892ZM16.7802 8.13152L16.4288 8.48557C16.2319 8.67412 15.8806 8.90666 15.6401 9.00617L15.5925 9.02712L15.5894 9.03236L15.579 9.04283C15.5697 9.05017 15.5655 9.05121 15.5583 9.05436C15.4623 9.09107 15.3648 9.12358 15.266 9.15177C15.0464 9.21638 14.8205 9.25677 14.5924 9.27223C14.4845 9.27923 14.3761 9.26969 14.2711 9.24395C14.1799 9.22366 14.0994 9.16992 14.0451 9.09311C13.9954 9.0156 13.9809 8.9119 14.0089 8.7841C14.0311 8.69312 14.0642 8.60519 14.1073 8.52223L10.794 11.1682H15.2007L15.7272 10.5585C16.4506 9.70589 16.7802 9.09626 16.7802 8.57461V8.13152Z" fill="white"/>
</svg>
