<svg width="41" height="42" viewBox="0 0 41 42" fill="none" xmlns="http://www.w3.org/2000/svg">
<path d="M27.6989 11.6226L27.5708 12.2977C27.3725 13.5771 27.4444 13.9432 27.9875 14.418L28.512 14.8565L27.9688 17.3049C27.6442 18.7656 27.2461 19.9898 26.9934 20.3921C26.7763 20.7392 26.5236 21.2503 26.4689 21.5248C26.3784 21.8529 26.0708 22.1827 25.601 22.4744C25.186 22.7127 24.371 23.3516 23.7936 23.8644C23.3324 24.284 23.0146 24.5412 22.842 24.6517L22.2783 25.1024C22.0973 25.3959 21.9948 25.6325 21.9555 25.812C21.9161 25.9968 21.9384 26.1194 21.9964 26.2092C22.0528 26.2955 22.1502 26.3559 22.2834 26.3939C22.4412 26.4313 22.6035 26.4447 22.7652 26.4336C23.131 26.4084 23.493 26.3435 23.8449 26.2403C23.9646 26.2074 24.0585 26.1764 24.1404 26.1487C24.2669 25.9916 24.559 25.6946 25.0765 25.1784C26.4501 23.8091 26.9746 23.0598 26.433 23.2618C26.2332 23.3343 26.3237 23.1513 26.667 22.7852C27.3913 22.0721 27.8066 20.9947 28.6744 17.6157C29.3611 14.948 29.3611 14.9101 29.8668 14.9101C30.1042 14.9101 30.7756 14.9515 30.7756 14.9515V11.6226H29.2347H27.6989ZM34.2572 17.0874C34.1478 17.0874 33.9668 17.2531 33.8592 17.4361C33.661 17.7642 33.8951 17.9645 36.8778 19.8465C38.6493 20.9809 40.0774 21.9478 40.0416 22.0221C40.0057 22.0756 38.5588 23.027 36.8249 24.1234C33.678 26.0952 33.661 26.1142 33.9496 26.5165C34.3118 26.9913 33.9496 27.1554 38.0343 24.5792L41 22.6609V21.2175L37.6909 19.1524C35.9023 18.0197 34.3477 17.1063 34.2572 17.0874ZM6.77866 17.2894C6.68812 17.2894 5.13354 18.2218 3.34492 19.3354L0 21.4005V22.844L3.32613 24.9453C5.17112 26.0952 6.7257 27.0466 6.79745 27.0466C6.86921 27.0466 7.01441 26.8808 7.15961 26.6805C7.37657 26.3335 7.19378 26.1867 4.13928 24.2322C1.23 22.3864 0.922496 22.1309 1.21292 21.9306C1.39399 21.8028 2.7675 20.9429 4.25033 20.0123C7.63111 17.911 7.45004 18.056 7.17841 17.6174C7.07078 17.4361 6.888 17.2721 6.78038 17.2894H6.77866ZM21.6138 17.3291C21.115 17.3256 20.0421 18.094 16.8305 20.7444C16.6922 21.0776 16.6801 21.3072 16.7434 21.4557C16.7843 21.5576 16.8595 21.6284 16.9637 21.6802C17.0662 21.732 17.1995 21.7631 17.3464 21.7752C17.6385 21.8011 17.9837 21.7544 18.2621 21.6992L18.45 21.656C18.5143 21.5688 18.5988 21.4989 18.6959 21.4523C18.8942 21.3418 19.7261 20.5752 20.5581 19.7533C22.0221 18.2546 22.3655 17.5777 21.7693 17.3584C21.7203 17.3388 21.6664 17.3288 21.6138 17.3291ZM25.3653 18.3703C24.9262 18.3823 24.1353 18.8969 22.7805 19.9898C22.1008 20.5475 21.6702 20.848 21.4396 20.9101L20.5444 21.625C20.2078 22.2465 20.1583 22.6316 20.2472 22.844C20.2694 22.8963 20.3016 22.9438 20.3421 22.9835C20.3825 23.0232 20.4305 23.0544 20.4829 23.0753C20.6135 23.1274 20.7526 23.1538 20.8928 23.153C21.2281 23.1494 21.5614 23.1 21.8837 23.0063C22.0516 22.9607 22.2175 22.9077 22.3808 22.8474L22.4304 22.8267L22.5209 22.7783C22.6917 22.5556 23.0847 22.136 23.5767 21.6526C25.1313 20.1366 25.9256 19.0592 25.7634 18.6569C25.6899 18.4618 25.5635 18.3633 25.3653 18.3703ZM21.2243 20.235C21.0979 20.2488 20.8144 20.4698 20.3036 20.9222C19.5656 21.5818 18.7609 21.9616 18.4825 21.7924C18.4177 21.8072 18.3527 21.821 18.2876 21.8339C18.0041 21.8908 17.6505 21.9375 17.3344 21.9116C17.1855 21.9025 17.0397 21.8656 16.904 21.8028C16.7761 21.7437 16.6739 21.6393 16.617 21.5093C16.5537 21.3539 16.5537 21.1605 16.6254 20.9136L15.5151 21.8356L13.0021 23.9369V27.3436L21.2362 20.7875C21.2347 20.7157 21.2439 20.6441 21.2636 20.5752C21.3269 20.3438 21.3234 20.2264 21.2243 20.2367V20.235ZM24.7675 21.3383C24.6427 21.3383 24.4343 21.5162 24.1012 21.8736C23.6484 22.3622 22.936 22.8353 22.5585 22.932L22.5005 22.9631C22.4385 22.989 22.3757 23.0131 22.3126 23.0356C22.21 23.0701 22.0767 23.1116 21.9231 23.153C21.6155 23.2376 21.2329 23.3153 20.8912 23.3067C20.7302 23.3065 20.5706 23.2748 20.4214 23.2135C20.2808 23.1549 20.1681 23.0435 20.1071 22.9027C20.008 22.6627 20.0472 22.326 20.2642 21.8477L13.0004 27.6302V29.7108H16.1916L22.9601 24.3375C23.1359 24.1407 23.4007 23.8713 23.7577 23.5346C24.7144 22.6385 24.9313 22.3294 24.9313 21.8719C24.9313 21.5162 24.8921 21.3366 24.7675 21.3366V21.3383ZM26.3784 24.7053L25.7992 25.2889C25.4746 25.5997 24.8956 25.983 24.4991 26.147L24.4207 26.1815L24.4156 26.1902L24.3984 26.2074C24.3831 26.2195 24.3762 26.2212 24.3643 26.2264C24.206 26.2869 24.0453 26.3405 23.8825 26.387C23.5205 26.4935 23.1481 26.5601 22.7721 26.5856C22.5943 26.5971 22.4156 26.5814 22.2425 26.5389C22.0922 26.5055 21.9595 26.4169 21.87 26.2903C21.7881 26.1625 21.7642 25.9916 21.8103 25.781C21.8469 25.631 21.9015 25.486 21.9725 25.3493L16.511 29.7108H23.7748L24.6427 28.7058C25.8351 27.3004 26.3784 26.2955 26.3784 25.4356V24.7053Z" fill="white"/>
</svg>
