<svg width="34" height="9" viewBox="0 0 34 9" fill="none" xmlns="http://www.w3.org/2000/svg">
<path d="M16.9649 2.58246C15.6375 2.58246 14.6804 3.44816 14.6804 4.74671C14.6804 6.04525 15.7577 6.91095 17.0851 6.91095C17.8871 6.91095 18.5941 6.59353 19.0317 6.05848L18.1119 5.52704C17.8691 5.79276 17.4999 5.94786 17.0851 5.94786C16.5092 5.94786 16.0198 5.64727 15.8383 5.16633H19.2073C19.2337 5.03167 19.2494 4.89219 19.2494 4.7455C19.2494 3.44816 18.2923 2.58246 16.9649 2.58246ZM15.8275 4.32588C15.9778 3.84614 16.389 3.54435 16.9637 3.54435C17.5396 3.54435 17.9508 3.84614 18.0999 4.32588H15.8275ZM29.9119 2.58246C28.5845 2.58246 27.6274 3.44816 27.6274 4.74671C27.6274 6.04525 28.7047 6.91095 30.0321 6.91095C30.8341 6.91095 31.5411 6.59353 31.9787 6.05848L31.0589 5.52704C30.816 5.79276 30.4469 5.94786 30.0321 5.94786C29.4562 5.94786 28.9668 5.64727 28.7853 5.16633H32.1543C32.1807 5.03167 32.1964 4.89219 32.1964 4.7455C32.1964 3.44816 31.2393 2.58246 29.9119 2.58246ZM28.7756 4.32588C28.9259 3.84614 29.3371 3.54435 29.9119 3.54435C30.4878 3.54435 30.899 3.84614 31.0481 4.32588H28.7756ZM24.0828 4.74671C24.0828 5.46812 24.5542 5.94906 25.2852 5.94906C25.7806 5.94906 26.1521 5.72422 26.3433 5.3575L27.2667 5.89015C26.8843 6.5274 26.1677 6.91095 25.2852 6.91095C23.9566 6.91095 23.0007 6.04525 23.0007 4.74671C23.0007 3.44816 23.9578 2.58246 25.2852 2.58246C26.1677 2.58246 26.8831 2.96602 27.2667 3.60327L26.3433 4.13591C26.1521 3.76919 25.7806 3.54435 25.2852 3.54435C24.5554 3.54435 24.0828 4.02529 24.0828 4.74671ZM33.9999 1.25987V6.79072H32.9178V1.25987H33.9999ZM4.44955 0.658691L8.89226 8.35378H0.00683594L4.44955 0.658691ZM15.5569 1.25987L12.2252 7.03119L8.89346 1.25987H10.1427L12.2252 4.86694L14.3077 1.25987H15.5569ZM22.64 2.7027V3.86778C22.5198 3.83292 22.3923 3.80887 22.2553 3.80887C21.5567 3.80887 21.0529 4.28981 21.0529 5.01123V6.79072H19.9708V2.7027H21.0529V3.80887C21.0529 3.19807 21.7635 2.7027 22.64 2.7027Z" fill="white"/>
</svg>
