<svg width="41" height="41" viewBox="0 0 41 41" fill="none" xmlns="http://www.w3.org/2000/svg">
<g clip-path="url(#clip0_209_61)">
<path d="M21.029 0.603516L3.34766 10.6061V30.6114L21.029 40.6142L38.7103 30.6114V10.6061L21.029 0.603516Z" fill="white"/>
<path d="M6.50508 29.9214L20.4454 37.8068V31.6652L11.7598 26.8873L6.50508 29.9214ZM5.55151 29.0579V12.5669L10.6529 15.511V26.1104L5.55151 29.0579ZM35.6094 29.9214L21.6691 37.8068V31.6652L30.3547 26.8873L35.6094 29.9214ZM36.563 29.0579V12.5669L31.4616 15.511V26.1104L36.563 29.0579ZM35.9661 11.4999L21.6691 3.41113V9.34937L30.8281 14.3873L30.8982 14.4273L35.9661 11.4999ZM6.14831 11.4999L20.4454 3.41113V9.34937L11.2863 14.3873L11.2163 14.4273L6.14831 11.4999Z" fill="#8ED6FB"/>
<path d="M21.669 30.2677L30.2379 25.5565V16.2207L21.669 21.1687V30.2677ZM20.4454 30.2677L11.8765 25.5565V16.2207L20.4454 21.1687V30.2677ZM29.6578 15.1404L21.0555 10.4092L12.4533 15.1404L21.0555 20.1084L29.6578 15.1404Z" fill="#1C78C0"/>
</g>
<defs>
<clipPath id="clip0_209_61">
<rect width="40.0105" height="40.0105" fill="white" transform="translate(0.947021 0.603516)"/>
</clipPath>
</defs>
</svg>
