<svg width="43" height="43" viewBox="0 0 43 43" fill="none" xmlns="http://www.w3.org/2000/svg">
<rect width="43" height="43" rx="7" fill="#19AE5E"/>
<path d="M7.92117 29.7208C8.30876 29.0709 8.70238 28.4301 9.07748 27.7785C10.3235 25.6204 11.249 23.2905 11.8248 20.8627C12.1224 19.609 12.4486 18.3608 12.9306 17.162C14.2422 13.8993 16.6423 11.8879 20.0034 11.0441C21.7235 10.6123 23.4498 10.7292 25.1293 11.3169C26.3768 11.7535 27.3724 12.5552 28.1943 13.5791C28.5036 13.9644 28.7753 14.3801 29.0637 14.7821C29.0992 14.8316 29.1325 14.8827 29.1956 14.9754C29.3967 14.6019 29.6003 14.262 29.7678 13.9051C30.1551 13.0801 30.3579 12.193 30.6032 11.3199C30.7842 10.6755 30.9882 10.0375 31.1918 9.39984C31.2451 9.24895 31.3145 9.10432 31.3988 8.96849C31.6341 8.56403 31.9289 8.40851 32.3797 8.52414C33.3 8.76021 34.1343 9.18013 34.7849 9.89076C35.2982 10.4515 35.326 11.1119 34.8514 11.7095C34.4649 12.1961 34.0289 12.6462 33.5882 13.0853C32.83 13.8409 31.9975 14.5213 31.3133 15.3518C31.1332 15.5703 30.9687 15.8019 30.8009 16.0303C30.7655 16.0785 30.7469 16.139 30.7123 16.2109C30.7946 16.2332 30.8618 16.2513 30.929 16.2695C32.6627 16.7403 33.9051 17.8178 34.7328 19.4013C35.2644 20.4186 35.5355 21.5117 35.6174 22.6525C35.7535 24.5498 35.3839 26.3435 34.4961 28.0255C33.911 29.1333 33.1238 30.1202 32.1757 30.9348C31.4586 31.5555 30.6594 32.0731 29.8008 32.4727C29.7544 32.4943 29.7109 32.5223 29.6659 32.5471C29.6277 32.5683 29.5893 32.589 29.5221 32.6255C29.7161 32.3383 29.8963 32.0841 30.0637 31.8216C31.0461 30.2814 30.5683 28.0472 28.8125 27.0281C28.1854 26.6643 27.508 26.4864 26.7893 26.5466C26.0609 26.6008 25.3735 26.9063 24.843 27.4115C24.2241 27.9916 23.8233 28.6911 23.6813 29.5273C23.4374 30.9627 24.0105 32.1713 25.2762 32.9196C25.5114 33.0564 25.7541 33.1797 26.0031 33.289C26.2507 33.3997 26.5082 33.488 26.7875 33.5963C26.5138 33.7115 26.2621 33.8319 26.0008 33.9249C25.1104 34.2418 24.1893 34.4052 23.2475 34.4547C22.817 34.4774 22.3858 34.5223 21.9561 34.5117C21.3102 34.4956 20.6642 34.4512 20.0201 34.3972C19.4734 34.3515 18.9279 34.2852 18.3842 34.2105C16.7507 33.9909 15.1453 33.5963 13.5951 33.0334C11.8206 32.3847 10.1589 31.5266 8.66728 30.3525C8.41652 30.1551 8.17681 29.9435 7.93231 29.738C7.92731 29.7332 7.92349 29.7273 7.92114 29.7208H7.92117Z" fill="white"/>
</svg>
