<svg width="84" height="84" viewBox="0 0 84 84" fill="none" xmlns="http://www.w3.org/2000/svg">
<g clip-path="url(#clip0_384_183)">
<path d="M70 1H14C6.8203 1 1 6.8203 1 14V70C1 77.1797 6.8203 83 14 83H70C77.1797 83 83 77.1797 83 70V14C83 6.8203 77.1797 1 70 1Z" fill="white" stroke="#CDCDCD" stroke-width="2" stroke-linejoin="round"/>
<mask id="mask0_384_183" style="mask-type:luminance" maskUnits="userSpaceOnUse" x="13" y="31" width="59" height="22">
<path d="M72 31H13V53H72V31Z" fill="white"/>
</mask>
<g mask="url(#mask0_384_183)">
<path d="M13 52.5414V49.3265H14.8084V34.7045H13V31.4907H20.8301V49.3265H22.6715V52.5414H13Z" fill="#040000"/>
<path d="M46.2837 52.5414V49.3265H48.4529V41.1401H46.3167V37.9263H48.4529V36.453C48.4529 34.6632 48.7932 33.6577 49.7082 32.7428C50.8361 31.6031 52.7503 31 55.2451 31C56.184 31 57.0512 31.0963 58.2405 31.3348L58.4545 31.3772V34.5933L58.1574 34.5474C57.7796 34.4901 57.6464 34.4901 57.3824 34.4901C55.8733 34.4901 54.4768 34.7389 54.4768 36.5447V37.9263H57.3699V41.1401H54.4768V49.3265H57.074V52.5414H46.2848H46.2837Z" fill="#040000"/>
<path d="M59.8303 52.5414V49.3265H61.9995V41.1401H59.8633V37.9263H61.9995V36.453C61.9995 34.6632 62.3398 33.6566 63.2549 32.7439C64.3816 31.6031 66.297 31 68.7917 31C69.7306 31 70.5978 31.0963 71.7871 31.3348L72.0011 31.3772V34.5933L71.7041 34.5474C71.3262 34.4901 71.1931 34.4901 70.929 34.4901C69.4199 34.4901 68.0235 34.7389 68.0235 36.5447V37.9263H70.9165V41.1401H68.0235V49.3265H70.6206V52.5414H59.8315H59.8303Z" fill="#040000"/>
<path d="M31.3063 53C29.4273 53 28.0263 52.5001 27.0202 51.4716C26.1735 50.5899 25.9288 49.8343 25.9288 48.0985V41.14H24.1204V37.9263H31.9505V47.0574C31.9505 48.0629 32.0278 48.3977 32.5775 48.8414C32.9281 49.1361 33.4675 49.2966 34.1003 49.2966C35.6777 49.2966 36.5461 48.2292 36.5461 46.2915V41.1412H34.7058V37.9274H42.5689V49.3276H44.3773V52.5425H37.04V50.9774H37.9357V50.0315H36.7384C35.7449 52.0025 33.9182 53.0023 31.3074 53.0023L31.3063 53Z" fill="#040000"/>
</g>
</g>
<defs>
<clipPath id="clip0_384_183">
<rect width="84" height="84" fill="white"/>
</clipPath>
</defs>
</svg>
